<svg width="1200" height="1200" viewBox="0 0 1200 1200" fill="none" xmlns="http://www.w3.org/2000/svg">
<mask id="mask0_16_1079" style="mask-type:alpha" maskUnits="userSpaceOnUse" x="0" y="0" width="1197" height="1197">
<circle cx="598.033" cy="598.033" r="598.033" fill="#D9D9D9"/>
</mask>
<g mask="url(#mask0_16_1079)">
<path d="M925.883 1091.76C923.138 1093.73 920.001 1095.69 917.256 1097.65C914.118 1099.61 911.373 1101.57 908.236 1103.14C905.491 1104.71 903.138 1106.27 900.393 1107.84C900.001 1108.24 899.609 1108.24 899.216 1108.63C890.197 1114.12 880.785 1119.22 871.373 1123.92C868.628 1125.49 865.491 1127.06 862.746 1128.24C862.746 1128.24 862.354 1128.63 861.962 1128.63C858.824 1130.2 855.687 1131.76 852.55 1133.33C846.275 1136.47 839.609 1139.22 833.334 1141.96C830.197 1143.53 826.667 1144.71 823.53 1145.88C820.393 1147.06 816.863 1148.63 813.726 1149.8C810.589 1150.98 807.06 1152.55 803.922 1153.73C803.922 1153.73 803.922 1153.73 803.53 1153.73C800.393 1154.9 796.863 1156.08 793.726 1157.26C786.667 1159.61 779.216 1161.96 772.158 1164.31C769.805 1165.1 767.06 1165.88 764.707 1166.67C757.256 1169.02 749.805 1170.98 742.354 1172.55C739.609 1173.33 736.863 1173.73 733.726 1174.51C726.667 1176.08 719.216 1177.65 712.158 1179.22C710.589 1179.61 709.412 1179.61 707.844 1180C705.491 1180.39 702.746 1180.78 700.393 1181.18C696.863 1181.57 693.726 1182.35 690.197 1182.75C688.628 1183.14 687.06 1183.14 685.491 1183.53C683.53 1183.92 681.177 1184.31 678.824 1184.31C672.55 1185.1 665.883 1185.88 659.609 1186.67C657.648 1187.06 655.295 1187.06 653.334 1187.45H652.942C650.197 1187.84 647.452 1187.84 644.707 1188.24C641.962 1188.63 639.216 1188.63 636.471 1188.63C634.903 1188.63 632.942 1189.02 631.373 1189.02C628.236 1189.02 625.491 1189.41 622.746 1189.41C618.824 1189.41 615.295 1189.8 611.373 1189.8C607.452 1189.8 603.922 1189.8 600.001 1189.8C597.256 1189.8 594.511 1189.8 591.765 1189.8C426.275 1187.45 277.648 1117.26 171.373 1005.88C171.373 1005.88 171.373 1005.49 170.981 1005.49C159.216 994.902 169.413 938.432 216.863 902.745C276.471 857.647 419.216 829.412 419.216 829.412C419.216 829.412 474.511 820.392 679.609 863.137C799.609 888.236 890.981 924.706 941.961 1023.53C952.55 1043.92 963.138 1075.29 925.883 1091.76Z" fill="white"/>
<path d="M680.785 858.824C756.079 874.118 836.471 890.588 898.432 940.392C919.216 957.255 932.942 981.961 944.314 1005.88C949.805 1017.65 955.295 1029.8 959.609 1042.75C961.962 1051.37 965.491 1061.18 963.53 1071.37C963.138 1074.12 960.785 1077.65 958.824 1079.61C949.805 1088.63 940.001 1094.12 930.197 1101.18C872.55 1141.18 806.275 1169.41 737.648 1184.31C584.707 1217.65 419.216 1191.76 284.707 1111.37C240.001 1084.31 198.824 1051.37 163.53 1012.55C159.609 1007.84 159.609 1000 159.609 994.902C160.001 983.137 163.138 971.765 167.06 961.177C176.471 936.863 188.628 912.549 209.413 895.686C224.314 885.49 240.393 876.863 256.864 869.804C308.628 847.843 363.138 832.549 419.216 826.275C423.922 825.883 424.707 832.549 420.001 833.334C366.275 844.314 312.942 860.784 263.138 883.137C245.099 892.157 225.883 900 211.373 914.118C197.648 929.02 187.844 947.451 180.001 966.275C174.903 977.647 171.373 995.687 172.942 1004.71C197.648 1034.12 226.667 1060 258.04 1082.35C429.805 1202.35 690.589 1210.2 873.334 1110.2C889.805 1101.18 905.883 1090.98 921.177 1080.39C928.628 1075.29 936.471 1070.98 942.354 1065.1C942.746 1064.71 942.354 1065.1 942.354 1065.49C942.354 1065.88 941.962 1066.27 941.962 1066.27C942.354 1061.57 940.785 1055.29 938.824 1049.02C931.765 1026.27 920.393 1002.35 908.236 981.569C889.02 950.588 856.471 930.981 823.53 915.294C800.785 904.706 776.863 896.471 752.55 888.628C728.236 880.785 703.53 874.118 678.824 868.235C672.55 866.667 674.511 857.647 680.785 858.824Z" fill="black"/>
<path d="M979.606 1147.45C972.155 1089.41 939.214 991.764 919.214 965.489C897.253 936.862 888.234 927.842 814.9 903.137C810.979 883.529 796.469 834.117 779.214 813.333C752.94 773.725 681.175 764.705 659.606 769.411C659.606 769.411 543.528 728.627 409.802 728.627C367.449 738.038 318.43 757.254 291.763 797.646C273.724 824.313 294.116 832.94 285.096 857.254C282.744 863.529 227.842 894.901 205.489 913.725C195.293 921.96 183.92 942.744 176.077 969.803C160.391 1025.1 177.253 1101.57 157.645 1168.23C119.998 1296.86 43.5278 1335.29 43.5278 1335.29H1056.86C1056.08 1334.9 995.685 1269.8 979.606 1147.45Z" fill="white"/>
<path d="M973.725 1148.24C965.882 1096.86 950.196 1045.88 930.196 998.04C920.392 974.902 905.49 952.549 884.706 938.824C874.118 932.157 862.353 927.059 850.196 921.961C838.039 917.255 825.49 912.942 813.333 908.628C811.373 907.843 809.804 906.275 809.412 904.314C807.843 896.471 805.882 889.02 803.529 881.177C793.333 849.412 782.353 814.118 752.549 795.687C729.804 781.961 702.745 775.294 676.471 774.118C671.373 774.118 665.882 774.118 661.176 774.902H659.608C659.216 774.902 658.431 774.902 658.039 774.51C639.216 765.491 618.431 760 598.039 754.51C536.863 740.392 472.941 734.51 410.196 734.118C371.765 743.138 318.039 764.314 294.51 803.53C290.588 809.804 288.627 816.079 289.412 823.138C290.196 830.981 292.941 839.608 290.98 847.843C290.196 851.373 289.412 855.294 287.843 858.432C284.706 862.745 279.608 865.491 275.686 868.236C255.294 881.569 234.51 893.334 214.902 907.059C208.235 911.765 201.961 916.079 197.255 922.745C183.529 942.353 175.294 965.883 171.765 989.412C165.49 1037.26 171.765 1085.88 165.49 1133.73C158.431 1181.57 140 1227.84 114.118 1268.63C96.0784 1296.08 74.1176 1321.57 46.2745 1339.22L43.5294 1328.24H1056.86L1052.55 1338.04C1040.78 1324.71 1031.37 1310.2 1022.75 1294.9C996.078 1250.2 980.392 1199.61 973.725 1148.24ZM985.49 1146.67C989.804 1180 998.039 1212.94 1010.59 1244.31C1023.14 1275.29 1038.82 1305.49 1060.78 1330.98C1063.92 1334.51 1061.18 1341.18 1056.47 1340.78H43.1372C40 1340.78 37.2549 1338.04 37.2549 1334.9C37.2549 1332.55 38.4314 1330.59 40.3921 1329.8C46.6666 1326.27 52.9412 1321.18 58.8235 1316.08C110.196 1269.8 142.353 1201.18 152.941 1132.94C161.961 1069.02 145.098 1000 173.725 939.216C180.392 925.098 188.627 910.196 201.961 901.177C226.274 883.138 252.941 869.804 276.863 852.157C277.255 852.157 277.255 851.765 277.255 851.765C276.863 852.157 276.471 852.942 276.471 853.334C278.824 847.844 279.608 843.138 278.824 836.863C277.647 829.02 275.686 818.432 278.431 810.196C279.608 805.491 281.961 801.177 284.314 797.647C312.549 755.294 362.353 736.471 409.804 725.883C423.137 726.275 436.863 723.922 450.196 723.922C468.627 723.922 487.451 726.667 505.882 729.02C558.824 737.255 609.804 751.373 661.961 762.745L658.431 762.353C670.588 760 681.961 761.177 693.725 762.745C769.02 774.118 794.51 807.059 814.902 877.255C817.255 885.098 819.216 892.942 821.176 901.177L817.255 896.471C854.902 909.804 897.255 921.961 921.176 956.863C929.804 967.451 936.078 980 941.569 992.549C961.569 1042.75 977.255 1093.33 985.49 1146.67Z" fill="black"/>
<path d="M361.57 889.413C390.589 951.374 435.687 1003.92 489.413 1045.49C491.374 1047.06 489.413 1050.2 487.06 1049.02C439.217 1026.28 398.824 987.452 374.903 940.394C367.06 924.707 360.393 907.845 358.04 890.197C357.256 888.237 360.393 887.452 361.57 889.413Z" fill="black"/>
<path d="M820.785 902.354C821.962 967.844 795.295 1034.9 744.315 1077.26C743.138 1078.43 741.57 1078.04 740.393 1076.86C739.217 1075.69 739.609 1074.12 740.785 1072.94C752.158 1061.96 763.53 1050.59 772.158 1037.26C790.197 1011.37 801.178 980.785 806.276 949.805C808.629 934.511 810.197 918.04 809.021 902.746C808.629 895.295 820.393 894.511 820.785 902.354Z" fill="black"/>
<path d="M589.804 1058.04C580.784 1089.8 573.333 1124.31 577.647 1157.26C578.824 1164.71 567.451 1166.67 565.882 1158.82C563.922 1140.78 566.275 1123.14 569.412 1105.88C572.941 1088.63 577.255 1072.16 583.137 1055.69C584.706 1051.77 591.373 1053.73 589.804 1058.04Z" fill="black"/>
<path d="M714.51 1052.16C727.451 1080 736.471 1109.02 743.529 1138.43C744.314 1141.57 742.353 1144.71 739.216 1145.49C736.078 1146.27 732.941 1144.31 732.157 1141.18C728.235 1119.22 723.137 1097.26 716.078 1075.69C713.726 1068.63 711.373 1061.57 708.627 1054.51C707.059 1050.98 712.549 1048.24 714.51 1052.16Z" fill="black"/>
<path d="M293.333 855.687C307.843 934.902 363.529 1001.96 430.588 1044.71C453.333 1059.22 477.647 1071.77 502.745 1081.96C504.314 1082.75 505.098 1084.31 504.314 1085.88C503.922 1087.45 501.961 1088.24 500.784 1087.45C474.902 1078.04 449.804 1066.27 426.274 1052.16C378.431 1023.92 336.471 984.706 308.235 936.863C293.725 912.157 282.353 886.275 276.863 858.04C276.078 853.334 279.216 849.02 283.922 848.236C288.235 847.059 292.941 850.589 293.333 855.687Z" fill="black"/>
<path d="M566.273 1165.88C555.292 1164.71 547.449 1154.51 549.802 1143.53L554.116 1122.75C555.685 1114.51 563.528 1108.63 571.763 1109.8C579.998 1110.59 586.665 1117.65 586.665 1126.28V1147.45C587.057 1158.43 577.645 1167.06 566.273 1165.88Z" fill="black"/>
<path d="M747.059 1151.37C736.471 1155.29 725.098 1149.02 722.353 1138.04L717.255 1117.26C715.294 1109.02 719.608 1100.78 727.843 1097.65C735.686 1094.9 744.706 1098.43 748.235 1105.88L757.647 1125.1C762.353 1135.69 757.647 1147.84 747.059 1151.37Z" fill="black"/>
<path d="M928.235 1139.61C928.235 1139.61 950.196 1262.75 941.569 1334.9" stroke="black" stroke-width="5.1257" stroke-miterlimit="10" stroke-linecap="round" stroke-linejoin="round"/>
<path d="M416.077 841.569C410.587 825.883 408.234 809.805 409.411 793.334C409.411 791.765 410.587 790.981 412.156 790.981C413.332 790.981 414.509 792.158 414.509 793.334C415.685 808.236 419.999 823.53 427.058 836.471C430.587 844.315 418.822 849.413 416.077 841.569Z" fill="black"/>
<path d="M681.175 862.354C670.194 837.648 643.136 825.099 619.214 816.471C604.312 811.765 587.842 808.236 572.155 805.883C534.116 800.001 480.391 790.981 442.351 787.06C441.959 787.06 441.959 786.275 442.351 786.275C453.332 785.099 464.312 785.099 475.293 785.099C508.234 785.883 541.175 789.413 573.724 794.511C606.273 799.609 641.175 809.413 665.881 832.942C673.724 841.177 680.783 850.589 682.744 861.962C683.136 863.138 681.567 863.53 681.175 862.354Z" fill="black"/>
<path d="M717.644 963.137C709.409 1003.53 656.075 1027.84 566.271 991.373C472.938 953.726 432.546 863.922 422.35 837.255C477.644 733.726 439.213 661.961 439.213 661.961C566.664 650.981 678.036 800 678.036 800L695.291 873.726C696.86 880 699.997 885.49 704.703 889.412C712.938 903.922 722.742 937.255 717.644 963.137Z" fill="white"/>
<path d="M420.391 838.432C427.842 827.059 432.548 813.726 435.685 800.785C441.567 773.726 443.528 746.275 443.92 718.824V708.628C442.744 698.432 439.214 687.843 435.293 678.432C430.195 665.883 448.626 658.039 454.508 670.588C455.293 672.157 455.293 674.902 455.293 676.471C456.469 729.804 458.822 798.432 425.097 842.745C422.744 845.098 418.038 841.569 420.391 838.432Z" fill="black"/>
<path d="M682.35 799.216C688.233 802.746 690.193 807.452 690.978 812.157C693.331 821.569 692.546 831.765 694.899 841.569C696.86 850.981 702.743 860.001 704.311 869.804C706.272 880.001 712.154 901.569 714.507 912.157C715.292 914.51 713.723 917.255 710.978 917.648C709.409 918.04 708.233 917.648 707.056 916.863C701.958 912.55 699.605 908.236 696.468 902.746C691.37 893.334 687.841 884.706 684.703 874.118C681.958 864.706 683.135 854.51 680.782 844.706C678.821 835.295 673.331 826.275 671.37 816.471C670.193 811.765 669.801 806.667 673.331 800.785C675.684 798.432 679.605 797.648 682.35 799.216Z" fill="black"/>
<path d="M710.587 902.745C635.685 898.824 574.508 875.294 514.901 769.02C565.097 813.334 624.312 830.196 686.665 838.039L694.901 874.118C696.469 880.392 705.881 898.824 710.587 902.745Z" fill="black"/>
<path d="M707.451 888.236C720.784 913.334 728.628 944.706 720.392 972.549C714.118 992.157 696.079 1006.67 676.471 1012.16C630.981 1024.31 578.432 1005.1 538.039 983.53C488.235 955.687 451.373 909.02 427.843 858.04C426.275 854.118 431.765 850.981 434.118 854.902C442.353 871.373 451.765 887.451 462.353 901.961C472.941 916.863 485.098 930.589 498.824 942.745C538.824 978.824 592.941 1001.18 647.059 1001.18C702.745 999.608 723.922 970.196 710.981 916.079C709.02 907.451 705.883 898.432 701.569 890.981C699.216 887.843 705.098 884.314 707.451 888.236Z" fill="black"/>
<path d="M859.214 417.255C866.273 450.196 860.783 472.157 857.645 563.138C854.508 652.549 828.626 778.824 796.861 810.588C772.547 834.51 694.508 853.334 625.096 835.687C589.802 826.667 559.998 806.275 535.685 791.765C505.096 773.334 478.43 716.471 456.469 680C439.214 651.373 440.783 685.883 418.43 661.177C387.449 627.451 350.194 559.608 368.626 439.608C398.43 245.098 552.547 222.353 666.665 243.922C781.567 265.49 840.391 330.588 859.214 417.255Z" fill="white"/>
<path d="M438.039 695.687C429.02 680.785 417.255 667.451 406.667 653.334C390.981 631.765 379.216 607.059 371.373 581.569C337.255 472.549 358.039 329.804 461.177 265.49C554.902 205.883 736.863 227.451 812.941 309.02C841.569 338.432 860 376.863 867.843 416.863C868.236 419.216 869.412 423.53 869.804 425.883C870.196 427.843 871.373 430.196 870.981 432.549C870.196 441.177 868.628 449.804 867.843 458.432C861.961 510.589 863.53 563.922 856.863 616.079C850.981 670.981 843.138 725.883 826.667 778.824C821.569 794.902 811.765 809.412 798.824 820C769.804 844.314 731.765 852.549 695.294 854.118C622.353 857.647 548.236 831.765 505.883 770.196C504.314 767.843 507.451 765.098 509.412 767.451C544.706 805.49 592.549 829.804 643.53 835.294C700 841.961 785.098 836.863 809.804 776.471C838.432 690.981 853.334 600.392 854.902 510.589C854.902 488.628 853.726 466.667 853.726 444.314C853.726 441.569 854.118 435.294 854.118 432.549C854.118 432.549 854.118 432.157 854.118 432.549C854.118 432.941 854.118 432.941 854.118 432.549C850.981 424.706 849.804 416.079 847.451 408.236C838.824 375.687 823.138 344.706 800.785 320C726.667 236.863 561.569 216.079 469.02 278.432C395.687 327.059 376.079 420.392 370.981 502.745C366.667 564.314 384.706 624.706 431.373 667.059L449.804 686.275C457.647 694.902 444.314 705.098 438.039 695.687Z" fill="black"/>
<path d="M484.315 570.98C484.315 570.98 472.158 512.157 414.903 519.215C365.492 525.49 348.237 643.921 460.394 676.863" fill="white"/>
<path d="M455.293 625.491C446.273 620.393 439.999 611.765 439.606 601.177C439.999 593.334 441.175 584.314 439.214 576.471C438.038 569.02 430.195 567.06 424.312 567.452C418.038 568.628 414.116 576.471 412.94 582.746C412.94 583.138 412.548 584.314 412.548 584.707C412.155 586.667 409.018 586.667 408.234 584.707C403.136 569.413 414.508 552.55 430.979 554.511C454.116 556.079 457.253 580.393 452.94 598.824C450.587 606.667 453.724 613.726 458.038 620.393L458.822 621.569C460.783 623.922 457.646 627.06 455.293 625.491Z" fill="black"/>
<path d="M769.022 529.412C774.904 557.255 785.884 583.137 799.61 607.451C811.767 637.255 780.394 665.49 752.551 664.314C749.414 664.314 749.022 660 751.767 659.216C769.414 653.726 785.492 641.961 788.237 623.922C789.414 618.431 787.845 613.726 785.1 609.02C772.159 584.706 764.316 556.863 766.277 529.412C766.277 527.451 769.022 527.451 769.022 529.412Z" fill="black"/>
<path d="M482.353 571.373C473.334 548.236 453.726 526.275 427.451 526.667C425.098 526.275 421.177 527.059 418.824 527.059C412.157 527.451 406.667 529.804 401.569 534.51C376.471 559.608 380.785 603.922 401.177 631.765C408.236 641.569 417.255 650.196 427.451 657.255C437.647 664.314 449.02 669.804 461.177 674.51C463.922 675.294 462.745 679.608 460 679.216C433.726 673.726 408.628 660.785 391.373 639.216C364.706 607.059 359.216 553.334 390.981 521.961C398.039 515.687 407.843 510.981 417.647 510.981C420.785 510.981 425.49 510.196 428.628 510.981C445.098 511.765 460.785 520 470.981 532.941C480 543.922 485.098 557.255 486.667 570.589C486.667 572.941 483.138 573.726 482.353 571.373Z" fill="black"/>
<path d="M730.195 701.961C730.587 714.902 711.371 747.844 674.508 732.549C638.822 718.04 628.234 649.804 679.214 682.353C705.097 699.608 721.567 702.353 730.195 701.961Z" fill="white"/>
<path d="M738.43 702.353C727.842 705.883 717.646 702.746 707.842 699.216C693.332 694.118 681.567 684.706 667.842 678.04C649.018 669.02 641.567 681.177 646.665 698.824C651.763 717.648 668.234 734.118 688.626 734.902C706.665 736.863 725.881 720.393 724.312 701.961C722.744 694.118 734.116 691.765 736.077 699.216C735.685 712.549 727.449 721.961 718.822 729.804C701.567 743.922 675.293 740.785 658.038 727.844C644.704 717.255 633.724 700.393 636.077 682.353C636.861 674.51 644.312 665.491 652.547 665.099C671.763 663.53 683.136 676.471 698.038 685.098C709.802 691.765 723.136 700 736.861 698.824C739.214 698.04 740.783 701.177 738.43 702.353Z" fill="black"/>
<path d="M647.448 687.843C653.722 696.863 663.526 701.569 673.722 703.922C676.075 704.706 678.036 704.706 679.997 704.706C683.526 704.706 687.055 707.451 689.016 709.412C698.428 716.863 711.369 718.039 723.134 718.431C725.879 718.431 725.879 723.137 723.134 722.745C710.585 721.961 697.252 720.784 685.487 714.902C683.134 714.118 681.957 713.333 679.997 713.333C672.546 714.118 666.663 709.412 661.173 706.275C654.899 702.745 648.624 699.216 641.173 697.647C637.644 696.863 635.683 693.725 636.075 690.196C636.859 684.706 644.703 683.137 647.448 687.843Z" fill="black"/>
<path d="M641.176 541.569C641.176 541.961 641.176 542.354 641.176 542.354L640.784 553.334C640.392 562.746 632.549 569.805 623.137 569.412C613.725 569.02 606.666 560.785 607.451 551.765L607.843 540.785C607.843 538.824 608.627 536.471 609.412 534.903L640.784 536.471C640.784 538.04 641.176 539.608 641.176 541.569Z" fill="black"/>
<path d="M805.096 550.196L804.704 560.393C804.312 569.02 796.861 575.687 788.234 575.295C779.606 574.902 772.939 567.451 773.332 558.824L773.724 548.628C773.724 546.667 774.116 544.706 774.9 543.138L804.312 544.314C804.704 546.275 805.096 548.236 805.096 550.196Z" fill="black"/>
<path d="M680.39 487.844C689.018 489.02 695.685 480 692.547 471.373C690.979 466.667 688.234 462.353 683.92 459.608C670.587 451.373 620.783 450.589 594.508 469.412C570.979 486.667 641.175 482.353 680.39 487.844Z" fill="black"/>
<path d="M789.018 492.157C781.959 492.157 777.645 483.138 781.175 475.687C783.136 471.765 785.881 468.236 789.802 466.275C801.959 460.393 834.508 463.922 849.018 483.922C861.959 501.569 821.567 491.765 789.018 492.157Z" fill="black"/>
<path d="M666.271 541.569L601.565 540.392C593.722 540 594.114 528.235 601.958 528.628L666.663 533.334C672.154 533.726 671.761 541.569 666.271 541.569Z" fill="black"/>
<path d="M821.568 548.235L773.725 549.02C765.882 549.02 765.49 537.647 773.333 537.255C773.725 537.255 773.725 537.255 774.117 537.255L821.961 542.353C825.49 542.745 825.098 547.843 821.568 548.235Z" fill="black"/>
<path d="M889.021 323.922C916.864 223.138 803.923 160 773.727 205.491C751.766 238.432 667.06 212.942 538.432 210.589C409.805 207.844 375.295 276.079 373.727 349.412C373.727 349.412 317.256 379.216 320.785 484.314C324.315 593.334 436.472 681.177 450.197 736.471C450.197 736.471 451.766 743.53 436.864 667.844C351.374 626.667 369.413 525.098 415.295 519.216C450.197 514.902 468.628 535.295 477.256 551.765C480.785 556.471 514.119 597.255 514.903 463.922C515.295 372.942 603.923 343.138 704.707 380C757.256 399.216 812.55 413.334 850.589 385.883C856.864 403.922 863.53 423.922 858.432 448.236C873.727 434.118 886.668 413.334 890.197 387.844C892.55 372.549 888.628 359.216 880.001 347.451C883.53 340.785 886.668 332.549 889.021 323.922Z" fill="black"/>
<path d="M651.766 822.745C644.315 823.529 640.001 831.372 643.531 838.039C650.589 851.372 668.628 858.823 680.001 863.529C698.825 871.764 701.57 871.372 714.511 874.117C735.687 878.431 747.452 869.019 752.55 863.137C757.648 857.255 761.178 851.372 767.844 836.47C770.981 829.412 777.648 829.412 778.825 823.529C780.393 813.725 756.472 796.47 748.628 792.549C735.295 785.49 711.766 790.98 688.236 809.412C674.903 818.431 661.57 821.568 651.766 822.745Z" fill="black"/>
</g>
</svg>
