<svg version="1.2" xmlns="http://www.w3.org/2000/svg" viewBox="0 0 812 1010" width="812" height="1010">
	<title>Cute Avatar</title>
	<defs>
		<clipPath clipPathUnits="userSpaceOnUse" id="cp1">
			<path d="m442.03 1006.07c-330.71 0-598.03-267.32-598.03-598.04 0-330.71 267.32-598.03 598.03-598.03 330.72 0 598.04 267.32 598.04 598.03 0 330.72-267.32 598.04-598.04 598.04z"/>
		</clipPath>
	</defs>
	<style>
		.s0 { fill: #ffffff } 
		.s1 { fill: #000000 } 
		.s2 { fill: none;stroke: #000000;stroke-linecap: round;stroke-linejoin: round;stroke-width: 5.1 } 
	</style>
	<g id="Clip-Path" clip-path="url(#cp1)">
		<g>
			<path class="s0" d="m769.9 901.8c-2.8 1.9-5.9 3.9-8.6 5.9-3.2 1.9-5.9 3.9-9.1 5.4-2.7 1.6-5.1 3.2-7.8 4.7-0.4 0.4-0.8 0.4-1.2 0.8-9 5.5-18.4 10.6-27.8 15.3-2.8 1.6-5.9 3.2-8.7 4.3 0 0-0.3 0.4-0.7 0.4q-4.7 2.4-9.5 4.7c-6.2 3.2-12.9 5.9-19.2 8.7-3.1 1.5-6.6 2.7-9.8 3.9-3.1 1.2-6.6 2.7-9.8 3.9-3.1 1.2-6.6 2.7-9.8 3.9 0 0 0 0-0.4 0-3.1 1.2-6.6 2.4-9.8 3.6-7 2.3-14.5 4.7-21.5 7-2.4 0.8-5.1 1.6-7.5 2.4q-11.2 3.5-22.3 5.8c-2.8 0.8-5.5 1.2-8.7 2-7 1.6-14.5 3.2-21.5 4.7-1.6 0.4-2.8 0.4-4.4 0.8-2.3 0.4-5.1 0.8-7.4 1.2-3.5 0.4-6.7 1.1-10.2 1.6-1.6 0.3-3.1 0.3-4.7 0.7-2 0.4-4.3 0.8-6.7 0.8-6.3 0.8-12.9 1.6-19.2 2.4-2 0.4-4.3 0.4-6.3 0.8h-0.4c-2.7 0.3-5.4 0.3-8.2 0.7-2.7 0.4-5.5 0.4-8.2 0.4-1.6 0-3.6 0.4-5.1 0.4-3.2 0-5.9 0.4-8.7 0.4-3.9 0-7.4 0.4-11.3 0.4-3.9 0-7.5 0-11.4 0q-4.1 0-8.2 0c-165.5-2.3-314.2-72.5-420.4-183.9 0 0 0-0.4-0.4-0.4-11.8-10.6-1.6-67.1 45.9-102.8 59.6-45.1 202.3-73.3 202.3-73.3 0 0 55.3-9 260.4 33.7 120 25.1 211.4 61.6 262.4 160.4 10.5 20.4 21.1 51.8-16.1 68.3z"/>
			<path class="s1" d="m524.8 668.8c75.3 15.3 155.7 31.8 217.6 81.6 20.8 16.9 34.5 41.6 45.9 65.5 5.5 11.8 11 23.9 15.3 36.9 2.4 8.6 5.9 18.4 3.9 28.6-0.4 2.7-2.7 6.3-4.7 8.2-9 9-18.8 14.5-28.6 21.6-57.6 40-123.9 68.2-192.6 83.1-152.9 33.4-318.4 7.5-452.9-72.9-44.7-27.1-85.9-60-121.2-98.8-3.9-4.8-3.9-12.6-3.9-17.7 0.4-11.8 3.5-23.1 7.5-33.7 9.4-24.3 21.5-48.7 42.3-65.5 14.9-10.2 31-18.8 47.5-25.9 51.7-22 106.2-37.3 162.3-43.5 4.7-0.4 5.5 6.2 0.8 7-53.7 11-107.1 27.5-156.9 49.8-18 9.1-37.2 16.9-51.7 31-13.8 14.9-23.6 33.4-31.4 52.2-5.1 11.3-8.6 29.4-7.1 38.4 24.7 29.4 53.8 55.3 85.1 77.6 171.8 120 432.6 127.9 615.3 27.9 16.5-9 32.6-19.2 47.9-29.8 7.4-5.1 15.3-9.4 21.2-15.3 0.3-0.4 0 0 0 0.4 0 0.4-0.4 0.8-0.4 0.8 0.4-4.7-1.2-11-3.2-17.3-7-22.7-18.4-46.6-30.6-67.4-19.2-31-51.7-50.6-84.7-66.3-22.7-10.6-46.6-18.8-71-26.7-24.3-7.8-49-14.5-73.7-20.4-6.3-1.5-4.3-10.6 2-9.4z"/>
			<path class="s0" d="m823.6 957.5c-7.4-58.1-40.4-155.7-60.4-182-21.9-28.6-31-37.7-104.3-62.4-3.9-19.6-18.4-69-35.7-89.8-26.3-39.6-98-48.6-119.6-43.9 0 0-116.1-40.8-249.8-40.8-42.4 9.4-91.4 28.7-118 69-18.1 26.7 2.3 35.3-6.7 59.7-2.4 6.2-57.3 37.6-79.6 56.4-10.2 8.3-21.6 29-29.4 56.1-15.7 55.3 1.2 131.8-18.5 198.4-37.6 128.7-114.1 167.1-114.1 167.1h1013.4c-0.8-0.4-61.2-65.5-77.3-187.8z"/>
			<path class="s1" d="m829.5 956.7c4.3 33.3 12.5 66.2 25.1 97.6 12.5 31 28.2 61.2 50.2 86.7 3.1 3.5 0.4 10.2-4.3 9.8h-1013.4c-3.1 0-5.8-2.8-5.8-5.9 0-2.4 1.1-4.3 3.1-5.1 6.3-3.5 12.5-8.6 18.4-13.7 51.4-46.3 83.6-114.9 94.1-183.2 9.1-63.9-7.8-132.9 20.8-193.7 6.7-14.1 14.9-29 28.3-38 24.3-18.1 50.9-31.4 74.9-49 0.4 0 0.4-0.4 0.4-0.4-0.4 0.4-0.8 1.1-0.8 1.5 2.3-5.5 3.1-10.2 2.3-16.4-1.2-7.9-3.1-18.5-0.4-26.7 1.2-4.7 3.6-9 5.9-12.6 28.2-42.3 78.1-61.1 125.5-71.7 13.3 0.4 27.1-2 40.4-2 18.4 0 37.3 2.8 55.7 5.1 52.9 8.3 103.9 22.4 156.1 33.7l-3.6-0.3c12.2-2.4 23.6-1.2 35.3 0.3 75.3 11.4 100.8 44.4 121.2 114.6 2.4 7.8 4.3 15.6 6.3 23.9l-3.9-4.7c37.6 13.3 80 25.5 103.9 60.4 8.6 10.6 14.9 23.1 20.4 35.6 20 50.2 35.7 100.8 43.9 154.2zm-11.8 1.5c-7.8-51.3-23.5-102.3-43.5-150.2-9.8-23.1-24.7-45.5-45.5-59.2-10.6-6.6-22.3-11.7-34.5-16.8-12.2-4.7-24.7-9.1-36.9-13.4-1.9-0.8-3.5-2.3-3.9-4.3-1.6-7.8-3.5-15.3-5.9-23.1-10.2-31.8-21.1-67.1-51-85.5-22.7-13.7-49.8-20.4-76-21.6-5.1 0-10.6 0-15.3 0.8h-1.6c-0.4 0-1.2 0-1.6-0.4-18.8-9-39.6-14.5-60-20-61.1-14.1-125.1-20-187.8-20.4-38.4 9-92.2 30.2-115.7 69.4-3.9 6.3-5.9 12.6-5.1 19.6 0.8 7.9 3.5 16.5 1.6 24.7-0.8 3.6-1.6 7.5-3.2 10.6-3.1 4.3-8.2 7.1-12.1 9.8-20.4 13.4-41.2 25.1-60.8 38.9-6.7 4.7-12.9 9-17.6 15.6-13.8 19.7-22 43.2-25.5 66.7-6.3 47.9 0 96.5-6.3 144.3-7.1 47.9-25.5 94.1-51.4 134.9-18 27.5-40 53-67.8 70.6l-2.8-11h1013.4l-4.4 9.8c-11.7-13.3-21.1-27.8-29.7-43.1-26.7-44.7-42.4-95.3-49.1-146.7z"/>
			<path class="s1" d="m205.6 699.4c29 62 74.1 114.5 127.8 156.1 2 1.6 0 4.7-2.3 3.5-47.9-22.7-88.3-61.5-112.2-108.6-7.8-15.7-14.5-32.6-16.9-50.2-0.7-2 2.4-2.7 3.6-0.8z"/>
			<path class="s1" d="m664.8 712.4c1.2 65.4-25.5 132.5-76.5 174.9-1.2 1.1-2.7 0.7-3.9-0.4-1.2-1.2-0.8-2.8 0.4-4 11.4-10.9 22.7-22.3 31.4-35.6 18-25.9 29-56.5 34.1-87.5 2.3-15.3 3.9-31.8 2.7-47.1-0.4-7.4 11.4-8.2 11.8-0.3z"/>
			<path class="s1" d="m433.8 868c-9 31.8-16.5 66.3-12.2 99.3 1.2 7.4-10.1 9.4-11.7 1.5-2-18 0.4-35.7 3.5-52.9 3.5-17.3 7.9-33.7 13.7-50.2 1.6-3.9 8.3-2 6.7 2.3z"/>
			<path class="s1" d="m558.5 862.2c13 27.8 22 56.8 29 86.2 0.8 3.2-1.1 6.3-4.3 7.1-3.1 0.8-6.3-1.2-7-4.3-4-22-9.1-43.9-16.1-65.5-2.4-7.1-4.7-14.1-7.5-21.2-1.5-3.5 3.9-6.3 5.9-2.3z"/>
			<path class="s1" d="m137.3 665.7c14.5 79.2 70.2 146.3 137.3 189 22.7 14.5 47 27.1 72.1 37.3 1.6 0.7 2.4 2.3 1.6 3.9-0.4 1.6-2.3 2.3-3.5 1.6-25.9-9.5-51-21.2-74.5-35.3-47.9-28.3-89.8-67.5-118.1-115.3-14.5-24.7-25.8-50.6-31.3-78.9-0.8-4.7 2.3-9 7-9.8 4.3-1.1 9 2.4 9.4 7.5z"/>
			<path class="s1" d="m410.3 975.9c-11-1.2-18.9-11.4-16.5-22.4l4.3-20.7c1.6-8.3 9.4-14.2 17.7-13 8.2 0.8 14.9 7.9 14.9 16.5v21.2c0.4 10.9-9.1 19.6-20.4 18.4z"/>
			<path class="s1" d="m591.1 961.4c-10.6 3.9-22-2.4-24.7-13.4l-5.1-20.7c-2-8.3 2.3-16.5 10.5-19.6 7.9-2.8 16.9 0.7 20.4 8.2l9.4 19.2c4.8 10.6 0 22.7-10.5 26.3z"/>
			<path class="s2" d="m772.2 949.6c0 0 22 123.1 13.4 195.3"/>
			<path class="s1" d="m260.1 651.6c-5.5-15.7-7.9-31.8-6.7-48.3 0-1.5 1.2-2.3 2.8-2.3 1.1 0 2.3 1.2 2.3 2.3 1.2 14.9 5.5 30.2 12.6 43.2 3.5 7.8-8.3 12.9-11 5.1z"/>
			<path class="s1" d="m525.2 672.4c-11-24.8-38.1-37.3-62-45.9-14.9-4.7-31.4-8.3-47-10.6-38.1-5.9-91.8-14.9-129.8-18.8-0.4 0-0.4-0.8 0-0.8 10.9-1.2 21.9-1.2 32.9-1.2 32.9 0.8 65.9 4.3 98.4 9.4 32.6 5.1 67.5 14.9 92.2 38.4 7.8 8.3 14.9 17.7 16.8 29.1 0.4 1.1-1.1 1.5-1.5 0.4z"/>
			<path class="s0" d="m561.6 773.1c-8.2 40.4-61.5 64.7-151.3 28.3-93.4-37.7-133.8-127.5-143.9-154.1 55.2-103.6 16.8-175.3 16.8-175.3 127.5-11 238.8 138 238.8 138l17.3 73.7c1.6 6.3 4.7 11.8 9.4 15.7 8.2 14.5 18 47.9 12.9 73.7z"/>
			<path class="s1" d="m264.4 648.4c7.4-11.3 12.1-24.7 15.3-37.6 5.9-27.1 7.8-54.5 8.2-82v-10.2c-1.2-10.2-4.7-20.8-8.6-30.2-5.1-12.5 13.3-20.4 19.2-7.8 0.8 1.6 0.8 4.3 0.8 5.9 1.2 53.3 3.5 121.9-30.2 166.2-2.4 2.4-7.1-1.1-4.7-4.3z"/>
			<path class="s1" d="m526.4 609.2c5.8 3.5 7.8 8.3 8.6 13 2.3 9.4 1.5 19.6 3.9 29.4 2 9.4 7.8 18.4 9.4 28.2 2 10.2 7.9 31.8 10.2 42.4 0.8 2.3-0.8 5.1-3.5 5.4-1.6 0.4-2.8 0-3.9-0.7-5.1-4.4-7.5-8.7-10.6-14.2-5.1-9.4-8.7-18-11.8-28.6-2.7-9.4-1.6-19.6-3.9-29.4-2-9.4-7.5-18.4-9.4-28.2-1.2-4.7-1.6-9.8 1.9-15.7 2.4-2.4 6.3-3.2 9.1-1.6z"/>
			<path class="s1" d="m554.6 712.7c-74.9-3.9-136.1-27.4-195.7-133.7 50.2 44.3 109.4 61.2 171.8 69l8.2 36.1c1.6 6.3 11 24.7 15.7 28.6z"/>
			<path class="s1" d="m551.5 698.2c13.3 25.1 21.1 56.5 12.9 84.3-6.3 19.7-24.3 34.2-43.9 39.7-45.5 12.1-98.1-7.1-138.5-28.7-49.8-27.8-86.6-74.5-110.2-125.5-1.5-3.9 4-7 6.3-3.1 8.3 16.5 17.7 32.6 28.3 47.1 10.5 14.9 22.7 28.6 36.4 40.7 40 36.1 94.1 58.5 148.3 58.5 55.6-1.6 76.8-31 63.9-85.1-2-8.6-5.1-17.7-9.4-25.1-2.4-3.2 3.5-6.7 5.9-2.8z"/>
			<path class="s0" d="m703.2 227.3c7.1 32.9 1.6 54.9-1.6 145.8-3.1 89.4-29 215.7-60.7 247.5-24.4 23.9-102.4 42.7-171.8 25.1-35.3-9-65.1-29.4-89.4-43.9-30.6-18.5-57.3-75.3-79.2-111.8-17.3-28.6-15.7 5.9-38.1-18.8-31-33.7-68.2-101.6-49.8-221.6 29.8-194.5 183.9-217.2 298.1-195.7 114.9 21.6 173.7 86.7 192.5 173.4z"/>
			<path class="s1" d="m282 505.7c-9-14.9-20.7-28.2-31.3-42.4-15.7-21.5-27.5-46.2-35.3-71.7-34.1-109.1-13.4-251.8 89.8-316.1 93.7-59.6 275.7-38 351.7 43.5 28.7 29.4 47.1 67.9 54.9 107.9 0.4 2.3 1.6 6.6 2 9 0.4 1.9 1.6 4.3 1.2 6.6-0.8 8.7-2.4 17.3-3.2 25.9-5.8 52.2-4.3 105.5-10.9 157.7-5.9 54.9-13.8 109.8-30.2 162.7-5.1 16.1-14.9 30.6-27.9 41.2-29 24.3-67 32.5-103.5 34.1-72.9 3.5-147.1-22.3-189.4-83.9-1.6-2.4 1.6-5.1 3.5-2.7 35.3 38 83.1 62.3 134.1 67.8 56.5 6.7 141.6 1.6 166.3-58.8 28.6-85.5 43.5-176.1 45.1-265.9 0-22-1.2-43.9-1.2-66.3 0-2.7 0.4-9 0.4-11.8 0 0 0-0.3 0 0q0 0.6 0 0c-3.1-7.8-4.3-16.4-6.6-24.3-8.7-32.5-24.4-63.5-46.7-88.2-74.1-83.1-239.2-103.9-331.8-41.6-73.3 48.7-92.9 142-98 224.3-4.3 61.6 13.7 122 60.4 164.4l18.4 19.2c7.8 8.6-5.5 18.8-11.8 9.4z"/>
			<path class="s0" d="m328.3 381c0 0-12.1-58.8-69.4-51.8-49.4 6.3-66.7 124.7 45.5 157.7"/>
			<path class="s1" d="m299.3 435.5c-9-5.1-15.3-13.7-15.7-24.3 0.4-7.9 1.6-16.9-0.4-24.7-1.2-7.5-9-9.4-14.9-9-6.3 1.1-10.2 9-11.4 15.2 0 0.4-0.4 1.6-0.4 2-0.3 2-3.5 2-4.3 0-5.1-15.3 6.3-32.2 22.8-30.2 23.1 1.6 26.3 25.9 21.9 44.3-2.3 7.9 0.8 14.9 5.1 21.6l0.8 1.2c2 2.3-1.2 5.5-3.5 3.9z"/>
			<path class="s1" d="m613 339.4c5.9 27.9 16.9 53.7 30.6 78.1 12.2 29.8-19.2 58-47 56.8-3.2 0-3.6-4.3-0.8-5.1 17.6-5.5 33.7-17.2 36.4-35.3 1.2-5.5-0.4-10.2-3.1-14.9-12.9-24.3-20.8-52.1-18.8-79.6 0-1.9 2.7-1.9 2.7 0z"/>
			<path class="s1" d="m326.4 381.4c-9.1-23.2-28.7-45.1-54.9-44.7-2.4-0.4-6.3 0.4-8.7 0.4-6.6 0.4-12.1 2.7-17.2 7.4-25.1 25.1-20.8 69.4-0.4 97.3 7 9.8 16.1 18.4 26.3 25.5 10.1 7 21.5 12.5 33.7 17.2 2.7 0.8 1.5 5.1-1.2 4.7-26.3-5.5-51.4-18.4-68.6-40-26.7-32.1-32.2-85.9-0.4-117.2 7-6.3 16.8-11 26.6-11 3.2 0 7.9-0.8 11 0 16.5 0.8 32.2 9 42.4 21.9 9 11 14.1 24.4 15.7 37.7 0 2.3-3.6 3.1-4.3 0.8z"/>
			<path class="s0" d="m574.2 512c0.4 12.9-18.8 45.8-55.7 30.5-35.7-14.5-46.3-82.7 4.7-50.1 25.9 17.2 42.4 20 51 19.6z"/>
			<path class="s1" d="m582.4 512.4c-10.6 3.5-20.8 0.3-30.6-3.2-14.5-5.1-26.2-14.5-40-21.2-18.8-9-26.2 3.2-21.1 20.8 5.1 18.8 21.5 35.3 41.9 36.1 18.1 2 37.3-14.5 35.7-32.9-1.6-7.9 9.8-10.2 11.8-2.8-0.4 13.3-8.7 22.8-17.3 30.6-17.2 14.1-43.5 11-60.8-2-13.3-10.5-24.3-27.4-21.9-45.4 0.8-7.9 8.2-16.9 16.4-17.3 19.3-1.6 30.6 11.4 45.5 20 11.8 6.7 25.1 14.9 38.9 13.7 2.3-0.8 3.9 2.4 1.5 3.6z"/>
			<path class="s1" d="m491.4 497.8c6.3 9.1 16.1 13.8 26.3 16.1 2.4 0.8 4.3 0.8 6.3 0.8 3.5 0 7.1 2.8 9 4.7 9.4 7.5 22.4 8.6 34.1 9 2.8 0 2.8 4.7 0 4.3-12.5-0.7-25.8-1.9-37.6-7.8-2.4-0.8-3.5-1.6-5.5-1.6-7.5 0.8-13.3-3.9-18.8-7-6.3-3.6-12.6-7.1-20-8.7-3.6-0.7-5.5-3.9-5.1-7.4 0.8-5.5 8.6-7.1 11.3-2.4z"/>
			<path class="s1" d="m485.2 351.6c0 0.4 0 0.8 0 0.8l-0.4 10.9c-0.4 9.4-8.3 16.5-17.7 16.1-9.4-0.4-16.4-8.6-15.6-17.6l0.3-11c0-2 0.8-4.3 1.6-5.9l31.4 1.6c0 1.5 0.4 3.1 0.4 5.1z"/>
			<path class="s1" d="m649.1 360.2l-0.4 10.2c-0.4 8.6-7.8 15.3-16.5 14.9-8.6-0.4-15.3-7.8-14.9-16.5l0.4-10.2c0-1.9 0.4-3.9 1.2-5.5l29.4 1.2c0.4 2 0.8 3.9 0.8 5.9z"/>
			<path class="s1" d="m524.4 297.8c8.6 1.2 15.3-7.8 12.1-16.4-1.5-4.7-4.3-9-8.6-11.8-13.3-8.2-63.1-9-89.4 9.8-23.5 17.3 46.7 13 85.9 18.4z"/>
			<path class="s1" d="m633 302.2c-7 0-11.4-9.1-7.8-16.5 1.9-3.9 4.7-7.5 8.6-9.4 12.2-5.9 44.7-2.4 59.2 17.6 13 17.7-27.4 7.9-60 8.3z"/>
			<path class="s1" d="m510.3 351.6l-64.7-1.2c-7.9-0.4-7.5-12.2 0.4-11.8l64.7 4.7c5.5 0.4 5.1 8.3-0.4 8.3z"/>
			<path class="s1" d="m665.6 358.2l-47.9 0.8c-7.8 0-8.2-11.4-0.4-11.7 0.4 0 0.4 0 0.8 0l47.9 5.1c3.5 0.3 3.1 5.4-0.4 5.8z"/>
			<path class="s1" d="m733 133.9c27.9-100.8-85.1-163.9-115.3-118.4-21.9 32.9-106.6 7.4-235.3 5.1-128.6-2.8-163.1 65.5-164.7 138.8 0 0-56.4 29.8-52.9 134.9 3.5 109 115.7 196.9 129.4 252.2 0 0 1.6 7-13.3-68.7-85.5-41.1-67.5-142.7-21.6-148.6 34.9-4.3 53.3 16.1 62 32.6 3.5 4.7 36.8 45.5 37.6-87.9 0.4-91 89-120.8 189.8-83.9 52.6 19.2 107.8 33.3 145.9 5.9 6.3 18 12.9 38 7.8 62.3 15.3-14.1 28.3-34.9 31.8-60.4 2.3-15.3-1.6-28.6-10.2-40.3 3.5-6.7 6.7-15 9-23.6z"/>
			<path class="s1" d="m495.8 632.7c-7.5 0.8-11.8 8.7-8.3 15.3 7.1 13.4 25.1 20.8 36.5 25.5 18.8 8.3 21.6 7.9 34.5 10.6 21.2 4.3 33-5.1 38-11 5.1-5.8 8.7-11.7 15.3-26.6 3.2-7.1 9.8-7.1 11-13 1.6-9.8-22.3-27-30.2-31-13.3-7-36.8-1.5-60.4 16.9-13.3 9-26.6 12.2-36.4 13.3z"/>
		</g>
	</g>
</svg>