<svg width="1052" height="497" viewBox="0 0 1052 497" fill="none" xmlns="http://www.w3.org/2000/svg">
<path d="M221.5 1.49999C129.5 -1.30001 43.8333 68 1 107.5V374.5L271.5 342L535 374.5L805.5 342L1051 374.5V26.5C1004.5 10 996.853 38.7102 870 87.5C818 107.5 738.848 37.5 667.5 37.5C585 37.5 554.5 107.5 470.5 87.5C400.215 70.7655 336.5 4.99999 221.5 1.49999Z" fill="#FFCEA0" stroke="#FFCEA0"/>
<path d="M830.5 496C922.5 498.8 1008.17 429.5 1051 390V123L780.5 155.5L517 123L246.5 155.5L1 123V471C47.5 487.5 55.1465 458.79 182 410C234 390 313.152 460 384.5 460C467 460 497.5 390 581.5 410C651.785 426.735 715.5 492.5 830.5 496Z" fill="#FFCEA0" stroke="#FFCEA0"/>
</svg>
