<svg width="620" height="244" viewBox="0 0 620 244" fill="none" xmlns="http://www.w3.org/2000/svg">
<path d="M584.879 99.9412C589.869 106.896 595.614 111.432 602.418 111.432V112.793H574.447C564.014 112.793 562.653 110.071 552.523 94.9517C547.987 88.4502 543.754 81.7975 543.754 81.7975L561.444 63.6539C568.096 56.6988 569.911 44.1495 560.385 44.1495V42.9399H601.511V44.1495C592.893 44.1495 573.086 53.5237 559.478 67.585L584.879 99.9412ZM541.032 95.7077C541.032 104.023 541.788 110.071 547.231 111.583V112.793H509.432V111.583C515.177 109.92 515.329 103.57 515.329 95.7077V17.2365C515.329 11.9446 513.514 9.8278 507.315 7.55985V6.35027L541.032 0V95.7077Z" fill="url(#paint0_linear_0_1)"/>
<path d="M479.62 37.648C471.607 37.648 465.256 31.2978 465.256 23.2843C465.256 15.2709 471.607 8.92062 479.62 8.92062C487.634 8.92062 494.135 15.2709 494.135 23.2843C494.135 31.2978 487.634 37.648 479.62 37.648ZM494.135 95.7077C494.135 104.023 494.891 110.071 500.334 111.583V112.793H462.535V111.583C468.28 109.92 468.432 103.419 468.432 95.7077V58.8156C468.432 53.5237 466.768 51.407 460.569 49.139V47.9294L494.135 41.5792V95.7077Z" fill="url(#paint1_linear_0_1)"/>
<path d="M420.558 42.9399H455.787V44.1495C445.959 44.1495 442.028 49.895 434.014 68.9458L416.929 114.154H408.613L378.827 53.5237C374.594 45.6615 369.453 44.4519 366.58 44.1495V42.9399H413.905V44.1495C403.775 44.1495 410.427 56.85 410.427 56.85L425.849 87.0894C425.849 87.0894 430.083 75.9008 432.653 68.6434C435.224 61.2347 436.282 44.1495 420.558 44.1495V42.9399Z" fill="url(#paint2_linear_0_1)"/>
<path d="M330.277 99.1852V75.9009C317.878 78.6224 318.03 87.8454 318.03 94.9517C318.03 94.9517 317.878 104.931 323.926 104.931C326.497 104.931 328.613 102.814 330.277 99.1852ZM367.169 102.36L368.076 103.116C365.959 109.769 358.097 114.154 348.571 114.154C348.571 114.154 331.788 114.154 330.428 100.546C328.462 108.408 320.751 114.154 310.016 114.154C304.271 114.154 291.117 111.583 291.117 98.7316C291.117 83.6119 303.363 80.7392 330.277 74.3889V64.7123C330.277 48.9878 321.356 40.5208 310.923 45.9639C310.923 45.9639 307.597 47.9294 312.738 49.7438C315.308 50.651 316.971 52.7677 318.181 55.4893C320.449 61.0836 317.878 67.1314 312.284 69.5506C306.841 71.6673 300.642 69.097 298.374 63.6539C296.862 59.7228 297.618 55.1869 300.188 52.4653C302.003 50.4998 304.724 47.7782 310.319 44.7543C317.122 41.1256 324.531 41.5792 324.531 41.5792C344.338 41.5792 355.375 53.9773 355.375 71.8185V94.3469C355.375 94.3469 355.375 105.233 362.633 104.931C362.633 104.931 366.413 104.931 367.169 102.36Z" fill="url(#paint3_linear_0_1)"/>
<path d="M213.94 62.2931C233.596 62.2931 235.561 62.5955 235.561 35.2289C235.561 6.35027 231.63 7.71104 213.94 7.71104H209.253V62.2931H213.94ZM269.278 93.5909C272.302 105.082 280.315 111.13 284.247 111.432V112.793H254.158C243.423 112.793 240.097 105.989 236.468 77.8664C234.503 62.7467 216.359 63.6539 216.359 63.6539H209.253V95.7077C209.253 110.525 209.858 111.432 216.208 111.432V112.793H171V111.432C177.501 111.432 178.862 111.13 178.862 95.7077V21.0164C178.862 11.6422 177.653 7.55984 171 7.55984V6.35027H213.94C244.028 6.35027 271.092 9.979 271.092 35.2289C271.092 57.9084 250.227 62.5955 235.712 62.5955C253.1 62.5955 261.869 66.3755 269.278 93.5909Z" fill="url(#paint4_linear_0_1)"/>
<path d="M566.973 133.94H602.202V135.149C591.316 135.149 587.838 140.895 579.825 159.946L560.925 214.225C556.238 229.345 551.853 235.242 548.376 238.115C545.05 240.836 538.246 241.592 533.861 239.627C527.359 236.603 524.638 229.043 527.36 222.541C530.383 216.04 537.943 213.167 544.445 216.04C547.771 217.552 550.039 219.971 551.097 223.146C551.702 225.414 555.482 228.287 559.716 213.167L525.243 144.524C521.009 136.661 516.02 135.452 512.996 135.149V133.94H560.32V135.149C550.19 135.149 556.843 147.85 556.843 147.85L572.265 177.787L578.464 159.492C578.464 159.492 585.873 135.149 566.973 135.149V133.94Z" fill="url(#paint5_linear_0_1)"/>
<path d="M581.977 124H580.977V125V126.21V127.21H581.977C586.468 127.21 589.249 128.644 590.988 130.665C592.759 132.724 593.567 135.529 593.814 138.464C594.059 141.39 593.737 144.34 593.346 146.576C593.151 147.69 592.94 148.618 592.779 149.265C592.699 149.588 592.631 149.841 592.584 150.011C592.56 150.096 592.541 150.16 592.529 150.202L592.516 150.248L592.515 150.249L587.079 166.294L572.736 138.452L572.733 138.447L572.733 138.447L572.733 138.446L572.733 138.446L572.73 138.441L572.719 138.419C572.708 138.398 572.692 138.365 572.67 138.322C572.627 138.236 572.564 138.107 572.487 137.941C572.332 137.61 572.121 137.134 571.897 136.562C571.446 135.408 570.963 133.907 570.779 132.436C570.592 130.939 570.736 129.646 571.337 128.752C571.894 127.924 573.005 127.21 575.325 127.21H576.325V126.21V125V124H575.325H528H527V125V126.21V127.115L527.9 127.205C529.325 127.347 531.166 127.697 533.147 128.914C535.126 130.129 537.315 132.252 539.36 136.045L573.652 204.329C572.642 207.871 571.671 210.34 570.787 212.018C569.861 213.777 569.083 214.565 568.553 214.869C568.303 215.013 568.129 215.037 568.019 215.033C567.909 215.028 567.798 214.992 567.679 214.909C567.416 214.726 567.175 214.352 567.068 213.949L567.06 213.919L567.05 213.89C565.895 210.425 563.416 207.804 559.863 206.19L559.863 206.19L559.853 206.185C552.847 203.089 544.708 206.191 541.457 213.18L541.449 213.197L541.441 213.215C538.521 220.193 541.436 228.334 548.443 231.593L548.443 231.593L548.456 231.599C550.85 232.672 553.834 232.98 556.625 232.683C559.408 232.387 562.15 231.473 564.013 229.949L564.017 229.946C567.712 226.893 572.171 220.782 576.879 205.598L595.763 151.365C599.779 141.818 602.593 135.784 605.704 132.11C607.237 130.299 608.82 129.091 610.633 128.326C612.454 127.558 614.57 127.21 617.206 127.21H618.206V126.21V125V124H617.206H581.977Z" fill="url(#paint6_linear_0_1)" stroke="white" stroke-width="2"/>
<path d="M505.103 186.708C505.103 195.023 505.859 201.071 511.302 202.583V203.793H473.503V202.583C479.248 200.92 479.399 194.57 479.399 186.708V108.236C479.399 102.945 477.585 100.828 471.386 98.5598V97.3503L505.103 91V186.708Z" fill="url(#paint7_linear_0_1)"/>
<path d="M525.916 188.583V187.823L525.184 187.62C522.87 186.977 521.525 185.405 520.728 182.895C519.911 180.318 519.717 176.869 519.717 172.708V77V75.7941L518.532 76.0173L484.815 82.3675L484 82.521V83.3503V84.5598V85.2588L484.656 85.499C487.728 86.6227 489.514 87.6454 490.563 88.9044C491.577 90.1206 492.013 91.697 492.013 94.2365V172.708C492.013 176.674 491.969 180.084 491.255 182.708C490.903 184.001 490.401 185.047 489.705 185.853C489.018 186.649 488.101 187.257 486.839 187.623L486.117 187.832V188.583V189.793V190.793H487.117H524.916H525.916V189.793V188.583Z" fill="url(#paint8_linear_0_1)" stroke="white" stroke-width="2"/>
<path d="M458.038 190.336C458.038 197.594 459.399 199.106 465.749 199.862V201.071L436.719 205.002C432.637 205.607 432.486 202.13 432.486 202.13V189.732C431.276 197.594 423.868 205.154 411.318 205.154C399.374 205.154 386.824 200.164 386.824 182.021V148.455C386.824 139.383 387.127 138.022 378.357 136.813V135.603L412.83 132.579V181.567C412.83 190.034 414.947 194.116 422.658 194.116C426.892 194.116 430.974 192.151 432.486 185.649V148.908C432.486 139.685 433.091 137.72 425.38 136.813V135.603L458.038 132.579V190.336Z" fill="url(#paint9_linear_0_1)"/>
<path d="M475.392 186.283V185.395L474.51 185.29C471.318 184.91 469.781 184.362 468.928 183.323C468.048 182.253 467.681 180.417 467.681 176.757V119V117.903L466.589 118.004L433.93 121.028L433.022 121.112V122.024V123.234V124.123L433.905 124.227C437.791 124.684 439.001 125.375 439.559 126.583C439.879 127.274 440.041 128.247 440.103 129.719C440.148 130.76 440.142 131.973 440.135 133.426C440.132 134.019 440.129 134.652 440.129 135.329V171.954C439.409 174.962 438.129 176.821 436.635 177.942C435.115 179.081 433.267 179.537 431.301 179.537C427.617 179.537 425.539 178.57 424.307 176.854C423.012 175.05 422.473 172.195 422.473 167.988V119V117.908L421.386 118.004L386.913 121.028L386 121.108V122.024V123.234V124.105L386.863 124.224C389.05 124.526 390.583 124.827 391.68 125.227C392.749 125.617 393.319 126.07 393.675 126.638C394.054 127.241 394.275 128.101 394.38 129.476C394.471 130.667 394.47 132.13 394.468 133.995C394.467 134.279 394.467 134.573 394.467 134.876V168.441C394.467 177.769 397.709 183.872 402.63 187.608C407.502 191.307 413.875 192.575 419.961 192.575C429.89 192.575 436.832 187.976 440.129 182.054V188.551V188.572L440.129 188.594L441.129 188.551C440.129 188.594 440.129 188.595 440.129 188.595L440.13 188.597L440.13 188.599L440.13 188.606L440.131 188.623C440.132 188.636 440.133 188.653 440.135 188.672C440.138 188.712 440.143 188.764 440.151 188.827C440.167 188.952 440.196 189.123 440.245 189.324C440.342 189.719 440.529 190.257 440.892 190.782C441.26 191.316 441.808 191.831 442.599 192.155C443.385 192.477 444.345 192.584 445.502 192.414C445.504 192.413 445.506 192.413 445.509 192.413L474.526 188.483L475.392 188.366V187.492V186.283Z" fill="url(#paint10_linear_0_1)" stroke="white" stroke-width="2"/>
<path d="M363.423 130.462C366.598 129.706 370.681 130.765 373.251 133.335C376.88 137.115 376.426 143.012 372.495 146.64C368.715 150.118 362.667 149.513 359.19 145.733C357.526 143.768 356.468 141.349 356.922 139.081C357.224 137.569 354.2 138.022 351.63 140.139C355.41 143.919 356.922 149.664 356.922 155.259C356.922 163.272 352.386 177.938 325.624 177.938C319.425 177.938 315.04 177.333 310.958 175.973C306.875 178.392 300.676 184.893 315.494 184.893H336.661C346.338 184.893 365.389 185.347 361.76 214.225C361.76 214.225 360.853 225.565 345.884 235.847C329.253 247.186 296.292 246.43 290.546 233.881C283.742 219.064 296.594 210.446 304.003 207.119C299.316 204.851 295.536 200.92 295.536 194.116C295.536 194.116 295.082 181.718 309.295 175.519C296.745 171.134 294.326 161.155 294.326 155.259C294.326 143.012 301.13 132.579 325.624 132.579C337.871 132.579 346.187 135.301 350.874 139.383C355.561 133.638 359.946 131.067 363.423 130.462ZM319.576 210.446C317.913 210.446 311.109 210.294 305.212 207.875C289.488 224.96 321.844 231.008 321.844 231.008C338.929 233.428 350.118 231.008 352.688 228.136C355.863 224.658 353.595 218.157 353.595 218.157C353.595 218.157 351.176 210.446 340.139 210.446H319.576ZM325.624 176.729C330.16 176.729 331.672 172.193 331.672 155.259C331.672 138.325 331.067 133.94 325.624 133.94C320.03 133.94 319.576 138.325 319.576 155.259C319.576 172.193 320.937 176.729 325.624 176.729Z" fill="url(#paint11_linear_0_1)"/>
<path d="M358.12 126.756C353.071 122.823 344.729 120.356 333.002 120.356C320.638 120.356 312.532 122.985 307.512 127.348C302.463 131.736 300.705 137.727 300.705 144.035C300.705 147.108 301.333 151.261 303.616 155.231C305.644 158.757 308.951 162.093 314.176 164.389C308.209 167.551 305.124 171.847 303.545 175.525C302.672 177.557 302.265 179.389 302.075 180.718C301.98 181.383 301.94 181.924 301.923 182.304C301.915 182.495 301.913 182.645 301.912 182.751C301.912 182.803 301.913 182.845 301.913 182.875L301.914 182.907C301.917 186.501 302.921 189.388 304.58 191.681C305.828 193.407 307.424 194.767 309.185 195.84C305.667 197.634 301.441 200.444 298.521 204.371C296.793 206.694 295.511 209.424 295.122 212.57C294.733 215.72 295.247 219.223 297.016 223.075C298.602 226.54 302.007 229.076 306.286 230.783C310.58 232.496 315.881 233.426 321.48 233.598C332.658 233.943 345.284 231.273 353.826 225.45L353.829 225.448C361.453 220.211 365.533 214.677 367.705 210.411C368.789 208.281 369.395 206.474 369.73 205.187C369.898 204.543 369.998 204.03 370.057 203.671C370.086 203.492 370.105 203.351 370.117 203.252C370.123 203.202 370.127 203.163 370.13 203.134L370.133 203.11C371.97 188.46 368.076 180.684 362.138 176.678C356.331 172.76 348.841 172.67 344.04 172.67H322.872C319.207 172.67 316.989 172.263 315.749 171.704C315.14 171.431 314.83 171.148 314.675 170.922C314.533 170.713 314.482 170.493 314.511 170.224C314.578 169.607 315.069 168.772 315.956 167.861C316.697 167.099 317.611 166.389 318.466 165.843C322.554 167.146 326.955 167.715 333.002 167.715C346.564 167.715 354.685 163.995 359.408 159.073C364.119 154.163 365.3 148.212 365.3 144.035C365.3 138.687 363.957 133.067 360.503 129.057C361.402 128.472 362.273 128.125 362.91 128.01C363.057 127.983 363.175 127.971 363.266 127.968C362.877 130.563 364.115 133.159 365.805 135.156L365.818 135.172L365.832 135.187C369.636 139.322 376.315 140.05 380.55 136.153L380.552 136.152C384.848 132.186 385.41 125.647 381.351 121.419L381.344 121.412L381.336 121.405C378.528 118.596 374.108 117.437 370.6 118.259C366.977 118.899 362.649 121.446 358.12 126.756ZM360.02 207.233L360.02 207.234L360.02 207.235L360.021 207.236L360.021 207.237L360.024 207.248L360.029 207.262L360.029 207.262L360.029 207.262L360.03 207.263L360.03 207.263L360.033 207.272L360.048 207.318C360.062 207.36 360.082 207.424 360.108 207.509C360.159 207.679 360.231 207.929 360.307 208.242C360.461 208.87 360.635 209.737 360.714 210.701C360.878 212.68 360.628 214.815 359.328 216.238L359.321 216.245C358.845 216.778 357.852 217.398 356.232 217.97C354.639 218.533 352.539 219.017 349.963 219.341C344.817 219.989 337.847 219.994 329.386 218.798L329.323 218.786C329.266 218.775 329.179 218.757 329.066 218.734C328.84 218.687 328.508 218.615 328.089 218.518C327.252 218.323 326.07 218.025 324.699 217.615C321.947 216.792 318.482 215.53 315.522 213.766C312.531 211.985 310.237 209.8 309.519 207.207C308.853 204.802 309.468 201.728 312.87 197.837C318.792 200.085 325.328 200.222 326.954 200.222H347.517C352.775 200.222 355.889 202.048 357.688 203.795C358.597 204.678 359.187 205.559 359.548 206.212C359.728 206.538 359.85 206.806 359.925 206.986C359.962 207.076 359.988 207.144 360.003 207.187C360.011 207.208 360.016 207.223 360.019 207.23L360.02 207.233ZM338.05 144.035C338.05 152.517 337.667 157.747 336.767 160.841C336.321 162.376 335.779 163.269 335.198 163.783C334.645 164.273 333.957 164.505 333.002 164.505C332.002 164.505 331.296 164.269 330.739 163.78C330.156 163.269 329.619 162.38 329.182 160.847C328.301 157.751 327.954 152.522 327.954 144.035C327.954 135.515 328.075 130.334 328.85 127.271C329.231 125.764 329.736 124.925 330.329 124.442C330.911 123.967 331.726 123.717 333.002 123.717C334.235 123.717 335.032 123.965 335.609 124.439C336.199 124.924 336.709 125.769 337.099 127.276C337.892 130.338 338.05 135.521 338.05 144.035Z" fill="url(#paint12_linear_0_1)" stroke="white" stroke-width="2"/>
<path d="M276.217 186.556C276.217 194.872 277.124 201.223 282.416 202.583V203.793H244.617V202.583C250.362 200.92 250.664 194.268 250.664 186.556V156.166C250.664 147.548 247.489 143.465 240.232 143.465C236.906 143.465 233.428 146.187 231.311 149.362V186.708C231.311 195.023 232.067 201.071 237.51 202.583V203.793H199.711V202.583C205.457 200.92 205.608 194.57 205.608 186.708V149.816C205.608 144.524 203.945 142.407 197.746 140.139V138.929L231.311 132.579V147.245C235.242 139.232 243.256 132.579 251.42 132.579C263.516 132.579 276.217 137.417 276.217 155.561V186.556Z" fill="url(#paint13_linear_0_1)"/>
<path d="M291.67 189.004V188.229L290.919 188.036C288.714 187.469 287.362 185.886 286.539 183.296C285.702 180.659 285.471 177.129 285.471 172.977V141.982C285.471 132.649 282.188 126.581 277.205 122.884C272.275 119.227 265.829 118 259.675 118C252.191 118 244.991 123.211 240.566 129.915V119V117.793L239.38 118.017L205.814 124.368L205 124.522V125.35V126.56V127.259L205.656 127.499C208.726 128.622 210.468 129.642 211.478 130.893C212.457 132.105 212.862 133.682 212.862 136.236V173.128C212.862 177.095 212.818 180.504 212.104 183.128C211.752 184.421 211.25 185.468 210.554 186.274C209.866 187.07 208.95 187.678 207.688 188.044L206.966 188.253V189.004V190.214V191.214H207.966H245.765H246.765V190.214V189.004V188.244L246.032 188.041C243.719 187.398 242.374 185.825 241.577 183.315C240.76 180.739 240.566 177.29 240.566 173.128V136.091C241.539 134.692 242.786 133.409 244.143 132.465C245.587 131.462 247.091 130.886 248.486 130.886C251.926 130.886 254.197 131.846 255.647 133.634C257.135 135.469 257.919 138.367 257.919 142.587V172.977C257.919 176.857 257.837 180.308 257.087 182.989C256.354 185.606 255.033 187.337 252.593 188.044L251.871 188.253V189.004V190.214V191.214H252.871H290.67H291.67V190.214V189.004Z" fill="url(#paint14_linear_0_1)" stroke="white" stroke-width="2"/>
<path d="M156.108 190.185V166.901C143.71 169.622 143.862 178.845 143.862 185.952C143.862 185.952 143.71 195.931 149.758 195.931C152.329 195.931 154.445 193.814 156.108 190.185ZM193.001 193.36L193.908 194.116C191.791 200.769 183.929 205.154 174.403 205.154C174.403 205.154 157.62 205.154 156.26 191.546C154.294 199.408 146.583 205.154 135.848 205.154C130.103 205.154 116.948 202.583 116.948 189.732C116.948 174.612 129.195 171.739 156.108 165.389V155.712C156.108 139.988 147.188 131.521 136.755 136.964C136.755 136.964 133.429 138.929 138.57 140.744C141.14 141.651 142.803 143.768 144.013 146.489C146.281 152.084 143.71 158.131 138.116 160.551C132.673 162.667 126.474 160.097 124.206 154.654C122.694 150.723 123.45 146.187 126.02 143.465C127.835 141.5 130.556 138.778 136.15 135.754C142.954 132.126 150.363 132.579 150.363 132.579C170.17 132.579 181.207 144.977 181.207 162.819V185.347C181.207 185.347 181.207 196.233 188.465 195.931C188.465 195.931 192.245 195.931 193.001 193.36Z" fill="url(#paint15_linear_0_1)"/>
<path d="M151.913 172.408L151.913 172.406L151.913 172.405L151.913 172.405L151.913 172.405L151.913 172.398V172.391L151.913 172.223C151.913 168.667 151.912 164.873 153.307 161.614C154.58 158.639 157.065 156.015 162.16 154.616V176.403C160.548 179.83 158.712 181.37 156.81 181.37C155.615 181.37 154.752 180.893 154.082 180.144C153.386 179.365 152.893 178.278 152.554 177.104C152.219 175.939 152.057 174.761 151.98 173.864C151.942 173.418 151.925 173.048 151.918 172.791C151.914 172.663 151.913 172.564 151.913 172.498C151.913 172.465 151.913 172.44 151.913 172.425L151.913 172.408ZM144.252 124.307C144.274 124.291 144.291 124.28 144.304 124.272C146.751 123.002 149.052 122.572 151.114 122.818C153.182 123.064 155.077 123.996 156.702 125.56C159.971 128.707 162.16 134.447 162.16 142.151V151.036C149.153 154.106 139.461 156.417 133.02 159.827C129.705 161.582 127.177 163.662 125.488 166.349C123.795 169.041 123 172.252 123 176.171C123 183.023 126.545 187.181 130.806 189.573C135.009 191.932 139.919 192.593 142.9 192.593C152.443 192.593 159.842 188.176 163.057 181.588C164.753 186.615 168.761 189.355 172.53 190.823C174.809 191.711 177.032 192.152 178.679 192.371C179.505 192.481 180.191 192.537 180.674 192.564C180.915 192.578 181.106 192.585 181.239 192.589C181.305 192.591 181.357 192.592 181.394 192.592L181.436 192.593L181.449 192.593L181.452 192.593H181.454C181.454 192.593 181.455 192.593 181.455 191.593V192.593C191.205 192.593 199.609 188.097 201.912 180.858L202.116 180.218L201.599 179.787L200.692 179.031L199.522 178.056L199.093 179.517C198.857 180.319 198.129 180.807 197.205 181.093C196.763 181.23 196.333 181.3 196.01 181.335C195.849 181.353 195.719 181.362 195.632 181.366C195.609 181.367 195.589 181.368 195.572 181.368C195.558 181.369 195.546 181.369 195.536 181.369L195.516 181.37L195.516 181.37H195.515H195.514L195.495 181.37L195.475 181.371C193.944 181.434 192.845 180.919 192.012 180.122C191.152 179.297 190.539 178.131 190.113 176.871C189.69 175.62 189.475 174.344 189.366 173.371C189.312 172.887 189.285 172.485 189.272 172.205C189.265 172.066 189.262 171.958 189.26 171.886C189.259 171.85 189.259 171.823 189.259 171.806L189.259 171.788L189.259 171.786V171.785V149.258C189.259 140.131 186.432 132.3 180.978 126.747C175.524 121.195 167.546 118.024 157.442 118.018C157.425 118.017 157.402 118.016 157.373 118.015C157.311 118.012 157.222 118.009 157.108 118.006C156.879 118 156.549 117.997 156.133 118.004C155.302 118.019 154.127 118.077 152.735 118.253C149.957 118.602 146.275 119.421 142.731 121.311L142.731 121.311L142.726 121.314C137.015 124.401 134.209 127.198 132.341 129.222C129.475 132.26 128.694 137.213 130.324 141.452L130.329 141.465L130.334 141.478C132.814 147.429 139.588 150.232 145.53 147.922L145.547 147.915L145.564 147.907C151.641 145.28 154.47 138.667 151.991 132.553L151.985 132.537L151.978 132.522C150.715 129.681 148.894 127.277 145.954 126.24C144.728 125.807 144.149 125.411 143.899 125.144C143.784 125.02 143.758 124.945 143.752 124.924C143.747 124.907 143.746 124.893 143.753 124.867C143.776 124.781 143.866 124.638 144.044 124.475C144.122 124.403 144.197 124.346 144.252 124.307ZM144.321 124.261L144.321 124.26L144.321 124.261Z" fill="url(#paint16_linear_0_1)" stroke="white" stroke-width="2"/>
<path d="M63.8051 164.028H106.443V165.389C96.0101 165.389 96.766 166.296 96.766 196.535C89.2062 201.827 74.2377 205.154 58.0596 205.154C25.4011 205.154 0 182.625 0 150.572C0 118.367 25.4011 95.9895 58.0596 95.9895C78.7736 95.9895 86.9382 98.2575 96.3125 104.457L93.4397 134.242H92.2301C92.2301 99.1646 67.8874 97.3503 58.0596 97.3503C40.8232 97.3503 37.1944 108.992 37.1944 150.572C37.1944 192.151 41.1256 203.793 58.0596 203.793C69.7018 203.793 74.3889 198.047 74.3889 183.381C74.3889 166.901 72.1209 165.389 63.8051 165.389V164.028Z" fill="url(#paint17_linear_0_1)"/>
<path d="M74.8051 150.039H73.8051V151.039V152.399V153.399H74.8051C79.0102 153.399 81.1001 153.823 82.3804 155.766C83.064 156.803 83.5798 158.366 83.9142 160.766C84.2471 163.156 84.3889 166.286 84.3889 170.392C84.3889 177.665 83.2166 182.476 80.8105 185.471C78.4508 188.408 74.728 189.803 69.0596 189.803C64.9319 189.803 61.7218 189.093 59.1903 187.49C56.6707 185.894 54.7068 183.341 53.2108 179.428C50.1882 171.521 49.1944 158.404 49.1944 137.582C49.1944 116.755 50.1129 103.64 53.0989 95.7325C54.576 91.8208 56.5298 89.27 59.0608 87.6757C61.6055 86.0727 64.8532 85.3608 69.0596 85.3608C73.937 85.3608 82.2237 85.8199 89.2786 90.4867C96.2551 95.1017 102.23 103.974 102.23 121.253V122.253H103.23H104.44H105.348L105.435 121.349L108.308 91.563L108.366 90.9646L107.864 90.6329C103.098 87.4812 98.6041 85.3084 92.6638 83.9346C86.7509 82.5671 79.4419 82 69.0596 82C35.9267 82 10 104.75 10 137.582C10 170.261 35.9248 193.164 69.0596 193.164C77.2135 193.164 85.0736 192.326 91.8619 190.816C98.6336 189.309 104.408 187.117 108.34 184.365L108.766 184.067V183.546C108.766 181.499 108.763 179.589 108.759 177.806C108.751 172.989 108.744 169.098 108.811 165.943C108.903 161.598 109.136 158.768 109.656 156.901C109.911 155.982 110.222 155.352 110.579 154.904C110.926 154.467 111.349 154.163 111.9 153.942C113.083 153.47 114.782 153.399 117.443 153.399H118.443V152.399V151.039V150.039H117.443H74.8051Z" fill="url(#paint18_linear_0_1)" stroke="white" stroke-width="2"/>
<defs>
<linearGradient id="paint0_linear_0_1" x1="554.867" y1="0" x2="554.867" y2="112.793" gradientUnits="userSpaceOnUse">
<stop stop-color="#FF6801"/>
<stop offset="1" stop-color="#F73845"/>
</linearGradient>
<linearGradient id="paint1_linear_0_1" x1="480.452" y1="8.92062" x2="480.452" y2="112.793" gradientUnits="userSpaceOnUse">
<stop stop-color="#FF6801"/>
<stop offset="1" stop-color="#F73845"/>
</linearGradient>
<linearGradient id="paint2_linear_0_1" x1="411.183" y1="42.9399" x2="411.183" y2="114.154" gradientUnits="userSpaceOnUse">
<stop stop-color="#FF6801"/>
<stop offset="1" stop-color="#F73845"/>
</linearGradient>
<linearGradient id="paint3_linear_0_1" x1="329.596" y1="41.561" x2="329.596" y2="114.154" gradientUnits="userSpaceOnUse">
<stop stop-color="#FF6801"/>
<stop offset="1" stop-color="#F73845"/>
</linearGradient>
<linearGradient id="paint4_linear_0_1" x1="227.623" y1="6.35027" x2="227.623" y2="112.793" gradientUnits="userSpaceOnUse">
<stop stop-color="#FF6801"/>
<stop offset="1" stop-color="#F73845"/>
</linearGradient>
<linearGradient id="paint5_linear_0_1" x1="557.599" y1="133.94" x2="557.599" y2="240.73" gradientUnits="userSpaceOnUse">
<stop stop-color="#F83E34"/>
<stop offset="1" stop-color="#EE0977"/>
</linearGradient>
<linearGradient id="paint6_linear_0_1" x1="572.603" y1="125" x2="572.603" y2="231.79" gradientUnits="userSpaceOnUse">
<stop stop-color="#F83E34"/>
<stop offset="1" stop-color="#EE0977"/>
</linearGradient>
<linearGradient id="paint7_linear_0_1" x1="491.344" y1="91" x2="491.344" y2="203.793" gradientUnits="userSpaceOnUse">
<stop stop-color="#F83E34"/>
<stop offset="1" stop-color="#EE0977"/>
</linearGradient>
<linearGradient id="paint8_linear_0_1" x1="504.958" y1="77" x2="504.958" y2="189.793" gradientUnits="userSpaceOnUse">
<stop stop-color="#F83E34"/>
<stop offset="1" stop-color="#EE0977"/>
</linearGradient>
<linearGradient id="paint9_linear_0_1" x1="422.053" y1="132.579" x2="422.053" y2="205.154" gradientUnits="userSpaceOnUse">
<stop stop-color="#F83E34"/>
<stop offset="1" stop-color="#EE0977"/>
</linearGradient>
<linearGradient id="paint10_linear_0_1" x1="430.696" y1="119" x2="430.696" y2="191.575" gradientUnits="userSpaceOnUse">
<stop stop-color="#F83E34"/>
<stop offset="1" stop-color="#EE0977"/>
</linearGradient>
<linearGradient id="paint11_linear_0_1" x1="332.174" y1="130.223" x2="332.174" y2="243.851" gradientUnits="userSpaceOnUse">
<stop stop-color="#F83E34"/>
<stop offset="1" stop-color="#EE0977"/>
</linearGradient>
<linearGradient id="paint12_linear_0_1" x1="339.552" y1="119" x2="339.552" y2="232.628" gradientUnits="userSpaceOnUse">
<stop stop-color="#F83E34"/>
<stop offset="1" stop-color="#EE0977"/>
</linearGradient>
<linearGradient id="paint13_linear_0_1" x1="240.081" y1="132.579" x2="240.081" y2="203.793" gradientUnits="userSpaceOnUse">
<stop stop-color="#F83E34"/>
<stop offset="1" stop-color="#EE0977"/>
</linearGradient>
<linearGradient id="paint14_linear_0_1" x1="248.335" y1="119" x2="248.335" y2="190.214" gradientUnits="userSpaceOnUse">
<stop stop-color="#F83E34"/>
<stop offset="1" stop-color="#EE0977"/>
</linearGradient>
<linearGradient id="paint15_linear_0_1" x1="155.428" y1="132.561" x2="155.428" y2="205.154" gradientUnits="userSpaceOnUse">
<stop stop-color="#F83E34"/>
<stop offset="1" stop-color="#EE0977"/>
</linearGradient>
<linearGradient id="paint16_linear_0_1" x1="162.48" y1="119" x2="162.48" y2="191.593" gradientUnits="userSpaceOnUse">
<stop stop-color="#F83E34"/>
<stop offset="1" stop-color="#EE0977"/>
</linearGradient>
<linearGradient id="paint17_linear_0_1" x1="53.2213" y1="95.9895" x2="53.2213" y2="205.154" gradientUnits="userSpaceOnUse">
<stop stop-color="#F83E34"/>
<stop offset="1" stop-color="#EE0977"/>
</linearGradient>
<linearGradient id="paint18_linear_0_1" x1="64.2213" y1="83" x2="64.2213" y2="192.164" gradientUnits="userSpaceOnUse">
<stop stop-color="#F83E34"/>
<stop offset="1" stop-color="#EE0977"/>
</linearGradient>
</defs>
</svg>
