<svg width="607" height="254" viewBox="0 0 607 254" fill="none" xmlns="http://www.w3.org/2000/svg">
<path d="M580.879 109.941C585.869 116.896 591.614 121.432 598.418 121.432V122.793H570.447C560.014 122.793 558.653 120.071 548.523 104.952C543.987 98.4502 539.754 91.7975 539.754 91.7975L557.444 73.6539C564.096 66.6988 565.911 54.1495 556.385 54.1495V52.9399H597.511V54.1495C588.893 54.1495 569.086 63.5237 555.478 77.585L580.879 109.941ZM537.032 105.708C537.032 114.023 537.788 120.071 543.231 121.583V122.793H505.432V121.583C511.177 119.92 511.329 113.57 511.329 105.708V27.2365C511.329 21.9446 509.514 19.8278 503.315 17.5598V16.3503L537.032 10V105.708Z" fill="url(#paint0_linear_0_1)"/>
<path d="M475.62 47.648C467.607 47.648 461.256 41.2978 461.256 33.2843C461.256 25.2709 467.607 18.9206 475.62 18.9206C483.634 18.9206 490.135 25.2709 490.135 33.2843C490.135 41.2978 483.634 47.648 475.62 47.648ZM490.135 105.708C490.135 114.023 490.891 120.071 496.334 121.583V122.793H458.535V121.583C464.28 119.92 464.432 113.419 464.432 105.708V68.8156C464.432 63.5237 462.768 61.407 456.569 59.139V57.9294L490.135 51.5792V105.708Z" fill="url(#paint1_linear_0_1)"/>
<path d="M416.558 52.9399H451.786V54.1495C441.959 54.1495 438.028 59.895 430.014 78.9458L412.929 124.154H404.613L374.827 63.5237C370.594 55.6615 365.453 54.4519 362.58 54.1495V52.9399H409.905V54.1495C399.775 54.1495 406.427 66.85 406.427 66.85L421.849 97.0894C421.849 97.0894 426.083 85.9008 428.653 78.6434C431.224 71.2347 432.282 54.1495 416.558 54.1495V52.9399Z" fill="url(#paint2_linear_0_1)"/>
<path d="M326.277 109.185V85.9009C313.878 88.6224 314.03 97.8454 314.03 104.952C314.03 104.952 313.878 114.931 319.926 114.931C322.497 114.931 324.613 112.814 326.277 109.185ZM363.169 112.36L364.076 113.116C361.959 119.769 354.097 124.154 344.571 124.154C344.571 124.154 327.788 124.154 326.428 110.546C324.462 118.408 316.751 124.154 306.016 124.154C300.271 124.154 287.117 121.583 287.117 108.732C287.117 93.6119 299.363 90.7392 326.277 84.3889V74.7123C326.277 58.9878 317.356 50.5208 306.923 55.9639C306.923 55.9639 303.597 57.9294 308.738 59.7438C311.308 60.651 312.971 62.7677 314.181 65.4893C316.449 71.0836 313.878 77.1314 308.284 79.5506C302.841 81.6673 296.642 79.097 294.374 73.6539C292.862 69.7228 293.618 65.1869 296.188 62.4653C298.003 60.4998 300.724 57.7782 306.319 54.7543C313.122 51.1256 320.531 51.5792 320.531 51.5792C340.338 51.5792 351.375 63.9773 351.375 81.8185V104.347C351.375 104.347 351.375 115.233 358.633 114.931C358.633 114.931 362.413 114.931 363.169 112.36Z" fill="url(#paint3_linear_0_1)"/>
<path d="M209.94 72.2931C229.596 72.2931 231.561 72.5955 231.561 45.2289C231.561 16.3503 227.63 17.711 209.94 17.711H205.253V72.2931H209.94ZM265.278 103.591C268.302 115.082 276.315 121.13 280.247 121.432V122.793H250.158C239.423 122.793 236.097 115.989 232.468 87.8664C230.503 72.7467 212.359 73.6539 212.359 73.6539H205.253V105.708C205.253 120.525 205.858 121.432 212.208 121.432V122.793H167V121.432C173.501 121.432 174.862 121.13 174.862 105.708V31.0164C174.862 21.6422 173.653 17.5598 167 17.5598V16.3503H209.94C240.028 16.3503 267.092 19.979 267.092 45.2289C267.092 67.9084 246.227 72.5955 231.712 72.5955C249.1 72.5955 257.869 76.3755 265.278 103.591Z" fill="url(#paint4_linear_0_1)"/>
<path d="M587.692 102.358L587.679 102.341L587.666 102.324L562.806 70.6577C569.412 63.9906 577.41 58.4165 584.834 54.4776C592.531 50.394 599.456 48.1495 603.511 48.1495H604.511V47.1495V45.9399V44.9399H603.511H562.385H561.385V45.9399V47.1495V48.1495H562.385C564.533 48.1495 565.897 48.8462 566.735 49.8573C567.597 50.8968 568.025 52.4165 567.982 54.27C567.894 57.9921 565.901 62.636 562.724 65.9592C562.723 65.9604 562.722 65.9615 562.721 65.9627L545.038 84.0994L544.485 84.6664L544.91 85.3344L545.754 84.7975C544.91 85.3344 544.91 85.3345 544.91 85.3345L544.91 85.3348L544.911 85.3358L544.913 85.3395L544.923 85.3543L544.959 85.4119L545.102 85.6354C545.227 85.8308 545.411 86.117 545.646 86.4806C546.115 87.2078 546.787 88.2448 547.601 89.4854C549.228 91.9637 551.424 95.2574 553.697 98.516C554.121 99.1478 554.529 99.7587 554.924 100.349C556.883 103.278 558.507 105.707 559.944 107.702C561.671 110.101 563.169 111.931 564.709 113.292C567.886 116.097 571.127 116.793 576.447 116.793H604.418H605.418V115.793V114.432V113.432H604.418C598.104 113.432 592.619 109.227 587.692 102.358ZM550.231 114.583V113.823L549.499 113.62C547.186 112.977 545.84 111.405 545.044 108.895C544.226 106.318 544.032 102.869 544.032 98.7077V3V1.79408L542.847 2.01728L509.13 8.36755L508.315 8.52103V9.35027V10.5598V11.2588L508.972 11.499C512.043 12.6227 513.829 13.6454 514.878 14.9044C515.892 16.1206 516.329 17.697 516.329 20.2365V98.7077C516.329 102.674 516.284 106.084 515.57 108.708C515.218 110.001 514.717 111.047 514.02 111.853C513.333 112.649 512.417 113.257 511.154 113.623L510.432 113.832V114.583V115.793V116.793H511.432H549.231H550.231V115.793V114.583Z" fill="url(#paint5_linear_0_1)" stroke="white" stroke-width="2"/>
<path d="M503.334 114.583V113.823L502.602 113.62C500.289 112.977 498.943 111.405 498.147 108.895C497.329 106.318 497.135 102.869 497.135 98.7077V44.5792V43.3722L495.949 43.5966L462.383 49.9469L461.569 50.1009V50.9294V52.139V52.838L462.226 53.0781C465.295 54.2011 467.037 55.2214 468.047 56.4717C469.027 57.6843 469.432 59.2607 469.432 61.8156V98.7077C469.432 102.597 469.387 106.008 468.672 108.653C467.978 111.223 466.697 112.916 464.257 113.623L463.535 113.832V114.583V115.793V116.793H464.535H502.334H503.334V115.793V114.583ZM466.256 26.2843C466.256 34.8501 473.054 41.648 481.62 41.648C490.172 41.648 497.135 34.8637 497.135 26.2843C497.135 17.705 490.172 10.9206 481.62 10.9206C473.054 10.9206 466.256 17.7186 466.256 26.2843Z" fill="url(#paint6_linear_0_1)" stroke="white" stroke-width="2"/>
<path d="M422.558 44.9399H421.558V45.9399V47.1495V48.1495H422.558C426.299 48.1495 428.943 49.1616 430.805 50.7047C432.675 52.2555 433.848 54.4188 434.5 56.8748C435.813 61.8237 434.95 67.7353 433.709 71.3135C432.427 74.9337 430.729 79.5369 429.35 83.2389C428.711 84.957 428.14 86.4798 427.712 87.6185L413.318 59.3957L413.318 59.3957L413.314 59.3865L413.313 59.3864L413.313 59.386L413.313 59.3859L413.311 59.3812L413.299 59.3586C413.288 59.3377 413.272 59.3053 413.251 59.2622C413.208 59.1759 413.145 59.0469 413.067 58.8813C412.913 58.5497 412.701 58.0735 412.478 57.5015C412.027 56.348 411.544 54.8472 411.36 53.3757C411.172 51.8786 411.317 50.5855 411.918 49.6921C412.475 48.8639 413.586 48.1495 415.905 48.1495H416.905V47.1495V45.9399V44.9399H415.905H368.58H367.58V45.9399V47.1495V48.0498L368.476 48.144C369.826 48.2861 371.67 48.6363 373.674 49.8559C375.673 51.0729 377.897 53.196 379.938 56.9815L409.716 117.595L409.99 118.154H410.613H418.929H419.62L419.864 117.507L436.943 72.3165C440.956 62.777 443.888 56.7276 446.985 53.0475C448.515 51.2294 450.062 50.0209 451.773 49.2582C453.487 48.4941 455.428 48.1495 457.786 48.1495H458.786V47.1495V45.9399V44.9399H457.786H422.558Z" fill="url(#paint7_linear_0_1)" stroke="white" stroke-width="2"/>
<path d="M321.029 97.9692L321.029 97.9668L321.029 97.9663L321.029 97.9663L321.029 97.9661L321.03 97.9592V97.9517L321.03 97.7839C321.029 94.2283 321.029 90.4345 322.423 87.1753C323.696 84.1997 326.182 81.5764 331.277 80.1767V101.964C329.665 105.391 327.828 106.931 325.926 106.931C324.731 106.931 323.868 106.454 323.199 105.705C322.503 104.926 322.009 103.839 321.671 102.665C321.336 101.5 321.174 100.322 321.097 99.4254C321.058 98.9795 321.042 98.609 321.034 98.3523C321.031 98.2241 321.03 98.1246 321.029 98.0587C321.029 98.0257 321.029 98.0012 321.029 97.9857L321.029 97.9692ZM313.368 49.868C313.39 49.8525 313.408 49.8406 313.42 49.8326C315.868 48.5626 318.169 48.1334 320.23 48.3788C322.298 48.6248 324.194 49.5569 325.819 51.1207C329.088 54.2675 331.277 60.008 331.277 67.7123V76.5974C318.269 79.6668 308.577 81.9779 302.136 85.3879C298.822 87.1426 296.294 89.2232 294.604 91.9101C292.912 94.6018 292.117 97.8131 292.117 101.732C292.117 108.584 295.662 112.742 299.922 115.134C304.126 117.493 309.035 118.154 312.016 118.154C321.559 118.154 328.958 113.737 332.174 107.149C333.869 112.176 337.877 114.916 341.647 116.384C343.926 117.272 346.149 117.713 347.796 117.932C348.621 118.042 349.307 118.098 349.79 118.125C350.032 118.139 350.223 118.146 350.356 118.15C350.422 118.152 350.474 118.153 350.51 118.153L350.553 118.154L350.565 118.154L350.569 118.154H350.57C350.571 118.154 350.571 118.154 350.571 117.154V118.154C360.322 118.154 368.726 113.658 371.029 106.42L371.233 105.779L370.716 105.348L369.809 104.592L368.639 103.617L368.209 105.078C367.973 105.88 367.246 106.368 366.322 106.654C365.88 106.791 365.45 106.861 365.126 106.896C364.966 106.914 364.836 106.923 364.749 106.927C364.725 106.928 364.705 106.929 364.689 106.929C364.674 106.93 364.662 106.93 364.653 106.93L364.633 106.931L364.632 106.931H364.631H364.631L364.612 106.931L364.591 106.932C363.06 106.995 361.961 106.48 361.129 105.683C360.268 104.858 359.656 103.692 359.23 102.432C358.807 101.181 358.591 99.9053 358.482 98.9322C358.428 98.4484 358.402 98.0457 358.388 97.7664C358.382 97.6269 358.378 97.5186 358.377 97.4468C358.376 97.411 358.376 97.3842 358.375 97.3674L358.375 97.3495L358.375 97.3469V97.3463V74.8185C358.375 65.6919 355.549 57.8608 350.094 52.3076C344.641 46.7556 336.662 43.5849 326.559 43.5792C326.542 43.5783 326.519 43.5772 326.49 43.5759C326.428 43.5732 326.339 43.5699 326.224 43.5671C325.995 43.5614 325.665 43.5578 325.249 43.5651C324.419 43.5798 323.244 43.6385 321.851 43.8138C319.074 44.1634 315.392 44.9818 311.848 46.8719L311.848 46.8719L311.843 46.8746C306.132 49.9617 303.326 52.7594 301.457 54.783C298.591 57.8213 297.81 62.774 299.441 67.0129L299.446 67.0258L299.451 67.0385C301.931 72.9897 308.704 75.7934 314.647 73.4826L314.664 73.4758L314.681 73.4685C320.757 70.8409 323.586 64.2282 321.108 58.1136L321.101 58.0983L321.095 58.0831C319.832 55.242 318.01 52.8383 315.071 51.8008C313.844 51.3681 313.266 50.9716 313.016 50.7046C312.9 50.5812 312.874 50.506 312.869 50.485C312.864 50.4676 312.863 50.4541 312.87 50.4279C312.892 50.3422 312.983 50.1988 313.16 50.0359C313.238 49.9644 313.313 49.9069 313.368 49.868ZM313.437 49.8218L313.438 49.8214L313.437 49.8218Z" fill="url(#paint8_linear_0_1)" stroke="white" stroke-width="2"/>
<path d="M212.253 98.7077V67.6539H218.359H218.384L218.408 67.6527L218.408 67.6527L218.409 67.6527L218.416 67.6524L218.448 67.6511C218.477 67.65 218.524 67.6485 218.585 67.6472C218.709 67.6444 218.894 67.6422 219.133 67.6444C219.611 67.6489 220.301 67.6716 221.138 67.7446C222.815 67.8911 225.058 68.2383 227.348 69.0348C231.909 70.6214 236.559 73.9363 237.477 80.9953C239.287 95.0256 241.039 103.931 243.755 109.325C245.131 112.058 246.787 113.958 248.878 115.158C250.961 116.353 253.375 116.793 256.158 116.793H286.247H287.247V115.793V114.432V113.506L286.323 113.435C284.713 113.311 281.942 111.924 279.143 109.014C276.385 106.147 273.713 101.913 272.245 96.3364L272.243 96.3282C268.528 82.6803 264.417 74.6694 258.872 70.1147C256 67.7559 252.792 66.363 249.163 65.5667C253.379 64.7636 257.599 63.4179 261.341 61.2859C268.663 57.113 274.092 49.951 274.092 38.2289C274.092 31.7264 272.345 26.5421 269.185 22.4528C266.033 18.3758 261.536 15.4635 256.159 13.388C245.441 9.25066 230.983 8.35027 215.94 8.35027H173H172V9.35027V10.5598V11.5598H173C174.569 11.5598 175.722 11.8019 176.585 12.237C177.427 12.6619 178.057 13.3033 178.538 14.2322C179.544 16.178 179.862 19.3013 179.862 24.0164V98.7077C179.862 102.557 179.777 105.425 179.553 107.567C179.328 109.729 178.971 111.04 178.502 111.854C178.076 112.596 177.534 112.965 176.721 113.176C175.826 113.407 174.657 113.432 173 113.432H172V114.432V115.793V116.793H173H218.208H219.208V115.793V114.432V113.432H218.208C216.603 113.432 215.532 113.368 214.758 113.11C214.078 112.883 213.619 112.504 213.259 111.713C212.865 110.844 212.598 109.493 212.444 107.344C212.291 105.215 212.253 102.414 212.253 98.7077ZM236.561 38.2289C236.561 45.0748 236.437 50.1271 235.955 53.8754C235.471 57.6384 234.643 59.919 233.371 61.3623C232.126 62.7746 230.319 63.5369 227.476 63.9218C224.726 64.2943 221.182 64.2938 216.525 64.2932C216.332 64.2932 216.137 64.2931 215.94 64.2931H212.253V11.711H215.94C216.742 11.711 217.511 11.7084 218.251 11.7058C221.635 11.6941 224.385 11.6845 226.669 11.9433C229.425 12.2556 231.305 12.9427 232.669 14.3393C234.053 15.7562 235.051 18.0498 235.684 21.9079C236.315 25.7562 236.561 31.0174 236.561 38.2289Z" fill="url(#paint9_linear_0_1)" stroke="white" stroke-width="2"/>
<path d="M562.973 143.94H598.202V145.149C587.316 145.149 583.838 150.895 575.825 169.946L556.925 224.226C552.238 239.345 547.853 245.242 544.376 248.115C541.05 250.836 534.246 251.592 529.861 249.627C523.359 246.603 520.638 239.043 523.36 232.541C526.383 226.04 533.943 223.167 540.445 226.04C543.771 227.552 546.039 229.971 547.097 233.146C547.702 235.414 551.482 238.287 555.716 223.167L521.243 154.524C517.009 146.661 512.02 145.452 508.996 145.149V143.94H556.32V145.149C546.19 145.149 552.843 157.85 552.843 157.85L568.265 187.787L574.464 169.492C574.464 169.492 581.873 145.149 562.973 145.149V143.94Z" fill="url(#paint10_linear_0_1)"/>
<path d="M568.977 137H567.977V138V139.21V140.21H568.977C573.468 140.21 576.249 141.644 577.988 143.665C579.759 145.724 580.567 148.529 580.814 151.464C581.059 154.39 580.737 157.34 580.346 159.576C580.151 160.69 579.94 161.618 579.779 162.265C579.699 162.588 579.631 162.841 579.584 163.011C579.56 163.096 579.541 163.16 579.529 163.202L579.516 163.248L579.515 163.249L574.079 179.294L559.736 151.452L559.733 151.447L559.733 151.447L559.733 151.446L559.733 151.446L559.73 151.441L559.719 151.419C559.708 151.398 559.692 151.365 559.67 151.322C559.627 151.236 559.565 151.107 559.487 150.941C559.332 150.61 559.121 150.134 558.897 149.562C558.446 148.408 557.963 146.907 557.779 145.436C557.592 143.939 557.736 142.646 558.337 141.752C558.894 140.924 560.005 140.21 562.325 140.21H563.325V139.21V138V137H562.325H515H514V138V139.21V140.115L514.9 140.205C516.325 140.347 518.166 140.697 520.147 141.914C522.126 143.129 524.315 145.252 526.36 149.045L560.652 217.329C559.642 220.871 558.671 223.34 557.787 225.018C556.861 226.777 556.083 227.565 555.553 227.869C555.303 228.013 555.129 228.037 555.019 228.033C554.909 228.028 554.798 227.992 554.679 227.909C554.416 227.726 554.175 227.352 554.068 226.949L554.06 226.919L554.05 226.89C552.895 223.425 550.416 220.804 546.863 219.19L546.853 219.185C539.847 216.089 531.708 219.191 528.457 226.18L528.449 226.197L528.441 226.215C525.521 233.193 528.436 241.334 535.443 244.593L535.443 244.593L535.456 244.599C537.85 245.672 540.834 245.98 543.625 245.683C546.408 245.387 549.15 244.473 551.013 242.949L551.017 242.946C554.712 239.893 559.171 233.782 563.88 218.598L582.763 164.365C586.779 154.818 589.593 148.784 592.704 145.11C594.237 143.299 595.82 142.091 597.633 141.326C599.454 140.558 601.57 140.21 604.206 140.21H605.206V139.21V138V137H604.206H568.977Z" fill="url(#paint11_linear_0_1)" stroke="white" stroke-width="2"/>
<path d="M501.103 196.708C501.103 205.023 501.859 211.071 507.302 212.583V213.793H469.503V212.583C475.248 210.92 475.399 204.57 475.399 196.708V118.236C475.399 112.945 473.585 110.828 467.386 108.56V107.35L501.103 101V196.708Z" fill="url(#paint12_linear_0_1)"/>
<path d="M514.916 209.583V208.823L514.184 208.62C511.87 207.977 510.525 206.405 509.728 203.895C508.911 201.318 508.717 197.869 508.717 193.708V98V96.7941L507.532 97.0173L473.815 103.368L473 103.521V104.35V105.56V106.259L473.656 106.499C476.728 107.623 478.514 108.645 479.563 109.904C480.577 111.121 481.013 112.697 481.013 115.236V193.708C481.013 197.674 480.969 201.084 480.255 203.708C479.903 205.001 479.401 206.047 478.705 206.853C478.018 207.649 477.101 208.257 475.839 208.623L475.117 208.832V209.583V210.793V211.793H476.117H513.916H514.916V210.793V209.583Z" fill="url(#paint13_linear_0_1)" stroke="white" stroke-width="2"/>
<path d="M454.038 200.336C454.038 207.594 455.399 209.106 461.749 209.862V211.071L432.719 215.002C428.637 215.607 428.486 212.13 428.486 212.13V199.732C427.276 207.594 419.868 215.154 407.318 215.154C395.374 215.154 382.824 210.164 382.824 192.021V158.455C382.824 149.383 383.127 148.022 374.357 146.813V145.603L408.83 142.579V191.567C408.83 200.034 410.947 204.116 418.658 204.116C422.892 204.116 426.974 202.151 428.486 195.649V158.908C428.486 149.685 429.091 147.72 421.38 146.813V145.603L454.038 142.579V200.336Z" fill="url(#paint14_linear_0_1)"/>
<path d="M470.392 205.283V204.395L469.51 204.29C466.318 203.91 464.781 203.362 463.928 202.323C463.048 201.253 462.681 199.417 462.681 195.757V138V136.903L461.589 137.004L428.93 140.028L428.022 140.112V141.024V142.234V143.123L428.905 143.227C432.791 143.684 434.001 144.375 434.559 145.583C434.879 146.274 435.041 147.247 435.103 148.719C435.148 149.76 435.142 150.973 435.135 152.426C435.132 153.019 435.129 153.652 435.129 154.329V190.954C434.409 193.962 433.129 195.821 431.635 196.942C430.115 198.081 428.267 198.537 426.301 198.537C422.617 198.537 420.539 197.57 419.307 195.854C418.012 194.05 417.473 191.195 417.473 186.988V138V136.908L416.386 137.004L381.913 140.028L381 140.108V141.024V142.234V143.105L381.863 143.224C384.05 143.526 385.583 143.827 386.68 144.227C387.749 144.617 388.319 145.07 388.675 145.638C389.054 146.241 389.275 147.101 389.38 148.476C389.471 149.667 389.47 151.13 389.468 152.995C389.467 153.279 389.467 153.573 389.467 153.876V187.441C389.467 196.769 392.709 202.872 397.63 206.608C402.502 210.307 408.875 211.575 414.961 211.575C424.89 211.575 431.832 206.976 435.129 201.054V207.551V207.572L435.129 207.594L436.129 207.551C435.129 207.594 435.129 207.595 435.129 207.595L435.13 207.597L435.13 207.599L435.13 207.606L435.131 207.623C435.132 207.636 435.133 207.653 435.135 207.672C435.138 207.712 435.143 207.764 435.151 207.827C435.167 207.952 435.196 208.123 435.245 208.324C435.342 208.719 435.529 209.257 435.892 209.782C436.26 210.316 436.808 210.831 437.599 211.155C438.385 211.477 439.346 211.584 440.503 211.413C440.505 211.413 440.507 211.413 440.509 211.413L469.526 207.483L470.392 207.366V206.492V205.283Z" fill="url(#paint15_linear_0_1)" stroke="white" stroke-width="2"/>
<path d="M359.423 140.462C362.598 139.706 366.681 140.765 369.251 143.335C372.88 147.115 372.426 153.012 368.495 156.64C364.715 160.118 358.667 159.513 355.19 155.733C353.526 153.768 352.468 151.349 352.922 149.081C353.224 147.569 350.2 148.022 347.63 150.139C351.41 153.919 352.922 159.664 352.922 165.259C352.922 173.272 348.386 187.938 321.624 187.938C315.425 187.938 311.04 187.333 306.958 185.973C302.875 188.392 296.676 194.893 311.494 194.893H332.661C342.338 194.893 361.389 195.347 357.76 224.226C357.76 224.226 356.853 235.565 341.884 245.847C325.253 257.186 292.292 256.43 286.546 243.881C279.742 229.064 292.594 220.446 300.003 217.119C295.316 214.851 291.536 210.92 291.536 204.116C291.536 204.116 291.082 191.718 305.295 185.519C292.745 181.134 290.326 171.155 290.326 165.259C290.326 153.012 297.13 142.579 321.624 142.579C333.871 142.579 342.187 145.301 346.874 149.383C351.561 143.638 355.946 141.067 359.423 140.462ZM315.576 220.446C313.913 220.446 307.109 220.294 301.212 217.875C285.488 234.96 317.844 241.008 317.844 241.008C334.929 243.428 346.118 241.008 348.688 238.136C351.863 234.658 349.595 228.157 349.595 228.157C349.595 228.157 347.176 220.446 336.139 220.446H315.576ZM321.624 186.729C326.16 186.729 327.672 182.193 327.672 165.259C327.672 148.325 327.067 143.94 321.624 143.94C316.03 143.94 315.576 148.325 315.576 165.259C315.576 182.193 316.937 186.729 321.624 186.729Z" fill="url(#paint16_linear_0_1)"/>
<path d="M355.12 145.756C350.071 141.823 341.729 139.356 330.002 139.356C317.638 139.356 309.532 141.985 304.512 146.348C299.463 150.736 297.705 156.727 297.705 163.035C297.705 166.108 298.333 170.261 300.616 174.231C302.644 177.757 305.951 181.093 311.176 183.389C305.209 186.551 302.124 190.847 300.545 194.525C299.672 196.557 299.265 198.389 299.075 199.718C298.98 200.383 298.94 200.924 298.923 201.304C298.915 201.495 298.913 201.645 298.912 201.751C298.912 201.803 298.913 201.845 298.913 201.875L298.914 201.907C298.917 205.501 299.921 208.388 301.58 210.681C302.828 212.407 304.424 213.767 306.185 214.84C302.667 216.634 298.441 219.444 295.521 223.371C293.793 225.694 292.511 228.424 292.122 231.57C291.733 234.72 292.247 238.223 294.016 242.075C295.602 245.54 299.007 248.076 303.286 249.783C307.58 251.496 312.881 252.426 318.48 252.598C329.658 252.943 342.284 250.273 350.826 244.45L350.829 244.448C358.453 239.211 362.533 233.677 364.705 229.411C365.789 227.281 366.395 225.474 366.73 224.187C366.898 223.543 366.998 223.03 367.057 222.671C367.086 222.492 367.105 222.351 367.117 222.252C367.123 222.202 367.127 222.163 367.13 222.134L367.133 222.11C368.97 207.46 365.076 199.684 359.138 195.678C353.331 191.76 345.841 191.67 341.04 191.67H319.872C316.207 191.67 313.989 191.263 312.749 190.704C312.14 190.431 311.83 190.148 311.675 189.922C311.533 189.713 311.482 189.493 311.511 189.224C311.578 188.607 312.069 187.772 312.956 186.861C313.697 186.099 314.611 185.389 315.466 184.843C319.554 186.146 323.955 186.715 330.002 186.715C343.564 186.715 351.685 182.995 356.408 178.073C361.119 173.163 362.3 167.212 362.3 163.035C362.3 157.687 360.957 152.067 357.503 148.057C358.402 147.472 359.273 147.125 359.91 147.01C360.057 146.983 360.175 146.971 360.266 146.968C359.877 149.563 361.115 152.159 362.805 154.156L362.818 154.172L362.832 154.187C366.636 158.322 373.315 159.05 377.55 155.153L377.552 155.152C381.848 151.186 382.41 144.647 378.351 140.419L378.344 140.412L378.336 140.405C375.528 137.596 371.108 136.437 367.6 137.259C363.977 137.899 359.649 140.446 355.12 145.756ZM357.02 226.233L357.02 226.234L357.02 226.235L357.021 226.236L357.021 226.237L357.024 226.248L357.029 226.262L357.029 226.262L357.029 226.262L357.03 226.263L357.03 226.263L357.033 226.272L357.048 226.318C357.062 226.36 357.082 226.424 357.108 226.509C357.159 226.679 357.231 226.929 357.307 227.242C357.461 227.87 357.635 228.737 357.714 229.701C357.878 231.68 357.628 233.815 356.328 235.238L356.321 235.245C355.845 235.778 354.852 236.398 353.232 236.97C351.639 237.533 349.539 238.017 346.963 238.341C341.817 238.989 334.847 238.994 326.386 237.798L326.323 237.786C326.266 237.775 326.179 237.757 326.066 237.734C325.84 237.687 325.508 237.615 325.089 237.518C324.252 237.323 323.07 237.025 321.699 236.615C318.947 235.792 315.482 234.53 312.522 232.766C309.531 230.985 307.237 228.8 306.519 226.207C305.853 223.802 306.468 220.728 309.87 216.837C315.792 219.085 322.328 219.222 323.954 219.222H344.517C349.775 219.222 352.889 221.048 354.688 222.795C355.597 223.678 356.187 224.559 356.548 225.212C356.728 225.538 356.85 225.806 356.925 225.986C356.962 226.076 356.988 226.144 357.003 226.187C357.011 226.208 357.016 226.223 357.019 226.23L357.02 226.233ZM335.05 163.035C335.05 171.517 334.667 176.747 333.767 179.841C333.321 181.376 332.779 182.269 332.198 182.783C331.645 183.273 330.957 183.505 330.002 183.505C329.002 183.505 328.296 183.269 327.739 182.78C327.156 182.269 326.619 181.38 326.182 179.847C325.301 176.751 324.954 171.522 324.954 163.035C324.954 154.515 325.075 149.334 325.85 146.271C326.231 144.764 326.736 143.925 327.329 143.442C327.911 142.967 328.726 142.717 330.002 142.717C331.235 142.717 332.032 142.965 332.609 143.439C333.199 143.924 333.709 144.769 334.099 146.276C334.892 149.338 335.05 154.521 335.05 163.035Z" fill="url(#paint17_linear_0_1)" stroke="white" stroke-width="2"/>
<path d="M272.217 196.556C272.217 204.872 273.124 211.223 278.416 212.583V213.793H240.617V212.583C246.362 210.92 246.664 204.268 246.664 196.556V166.166C246.664 157.548 243.489 153.465 236.232 153.465C232.906 153.465 229.428 156.187 227.311 159.362V196.708C227.311 205.023 228.067 211.071 233.51 212.583V213.793H195.711V212.583C201.457 210.92 201.608 204.57 201.608 196.708V159.816C201.608 154.524 199.945 152.407 193.746 150.139V148.929L227.311 142.579V157.245C231.242 149.232 239.256 142.579 247.42 142.579C259.516 142.579 272.217 147.417 272.217 165.561V196.556Z" fill="url(#paint18_linear_0_1)"/>
<path d="M287.67 208.004V207.229L286.919 207.036C284.714 206.469 283.362 204.886 282.539 202.296C281.702 199.659 281.471 196.129 281.471 191.977V160.982C281.471 151.649 278.188 145.581 273.205 141.884C268.275 138.227 261.829 137 255.675 137C248.191 137 240.991 142.211 236.566 148.915V138V136.793L235.38 137.017L201.814 143.368L201 143.522V144.35V145.56V146.259L201.656 146.499C204.726 147.622 206.468 148.642 207.478 149.893C208.457 151.105 208.862 152.682 208.862 155.236V192.128C208.862 196.095 208.818 199.504 208.104 202.128C207.752 203.421 207.25 204.468 206.554 205.274C205.866 206.07 204.95 206.678 203.688 207.044L202.966 207.253V208.004V209.214V210.214H203.966H241.765H242.765V209.214V208.004V207.244L242.032 207.041C239.719 206.398 238.374 204.825 237.577 202.315C236.76 199.739 236.566 196.29 236.566 192.128V155.091C237.539 153.692 238.786 152.409 240.143 151.465C241.587 150.462 243.091 149.886 244.486 149.886C247.926 149.886 250.197 150.846 251.647 152.634C253.135 154.469 253.919 157.367 253.919 161.587V191.977C253.919 195.857 253.837 199.308 253.087 201.989C252.354 204.606 251.033 206.337 248.593 207.044L247.871 207.253V208.004V209.214V210.214H248.871H286.67H287.67V209.214V208.004Z" fill="url(#paint19_linear_0_1)" stroke="white" stroke-width="2"/>
<path d="M152.108 200.185V176.901C139.71 179.622 139.862 188.845 139.862 195.952C139.862 195.952 139.71 205.931 145.758 205.931C148.329 205.931 150.445 203.814 152.108 200.185ZM189.001 203.36L189.908 204.116C187.791 210.769 179.929 215.154 170.403 215.154C170.403 215.154 153.62 215.154 152.26 201.546C150.294 209.408 142.583 215.154 131.848 215.154C126.103 215.154 112.948 212.583 112.948 199.732C112.948 184.612 125.195 181.739 152.108 175.389V165.712C152.108 149.988 143.188 141.521 132.755 146.964C132.755 146.964 129.429 148.929 134.57 150.744C137.14 151.651 138.803 153.768 140.013 156.489C142.281 162.084 139.71 168.131 134.116 170.551C128.673 172.667 122.474 170.097 120.206 164.654C118.694 160.723 119.45 156.187 122.02 153.465C123.835 151.5 126.556 148.778 132.15 145.754C138.954 142.126 146.363 142.579 146.363 142.579C166.17 142.579 177.207 154.977 177.207 172.819V195.347C177.207 195.347 177.207 206.233 184.465 205.931C184.465 205.931 188.245 205.931 189.001 203.36Z" fill="url(#paint20_linear_0_1)"/>
<path d="M146.913 191.408L146.913 191.406L146.913 191.405V191.405L146.913 191.405L146.913 191.398V191.391L146.913 191.223C146.913 187.667 146.912 183.873 148.307 180.614C149.58 177.639 152.065 175.015 157.16 173.616V195.403C155.548 198.83 153.712 200.37 151.81 200.37C150.615 200.37 149.752 199.893 149.082 199.144C148.386 198.365 147.893 197.278 147.554 196.104C147.219 194.939 147.057 193.761 146.98 192.864C146.942 192.418 146.925 192.048 146.918 191.791C146.914 191.663 146.913 191.564 146.913 191.498C146.913 191.465 146.913 191.44 146.913 191.425L146.913 191.408ZM158.057 200.588C159.753 205.615 163.761 208.355 167.53 209.823C169.809 210.711 172.032 211.152 173.679 211.371C174.505 211.481 175.191 211.537 175.674 211.564C175.915 211.578 176.106 211.585 176.239 211.589C176.305 211.591 176.357 211.592 176.394 211.592L176.436 211.593L176.449 211.593L176.452 211.593H176.454C176.454 211.593 176.455 211.593 176.455 210.593V211.593C186.205 211.593 194.609 207.097 196.912 199.858L197.116 199.218L196.599 198.787L195.692 198.031L194.522 197.056L194.093 198.517C193.857 199.319 193.129 199.807 192.205 200.093C191.763 200.23 191.333 200.3 191.01 200.335C190.849 200.353 190.719 200.362 190.632 200.366C190.589 200.368 190.556 200.369 190.536 200.369L190.516 200.37L190.516 200.37H190.515L190.514 200.37H190.513L190.495 200.37L190.474 200.371C188.944 200.434 187.845 199.919 187.012 199.122C186.152 198.297 185.539 197.131 185.113 195.871C184.69 194.62 184.475 193.344 184.366 192.371C184.312 191.887 184.285 191.485 184.272 191.205C184.265 191.066 184.262 190.958 184.26 190.886C184.259 190.85 184.259 190.823 184.259 190.806L184.259 190.788L184.259 190.786V190.785V168.258C184.259 159.131 181.432 151.3 175.978 145.747C170.524 140.195 162.546 137.024 152.442 137.018C152.425 137.017 152.402 137.016 152.373 137.015C152.311 137.012 152.222 137.009 152.108 137.006C151.879 137 151.549 136.997 151.133 137.004C150.302 137.019 149.127 137.077 147.735 137.253C144.957 137.602 141.275 138.421 137.731 140.311L137.731 140.311L137.726 140.314C132.015 143.401 129.209 146.198 127.341 148.222C124.475 151.26 123.694 156.213 125.324 160.452L125.329 160.465L125.334 160.478C127.814 166.429 134.588 169.232 140.53 166.922L140.547 166.915L140.564 166.907C146.641 164.28 149.47 157.667 146.991 151.553L146.985 151.537L146.978 151.522C145.715 148.681 143.894 146.277 140.954 145.24C139.728 144.807 139.149 144.411 138.899 144.144C138.784 144.02 138.758 143.945 138.752 143.924C138.747 143.907 138.746 143.893 138.753 143.867C138.776 143.781 138.866 143.638 139.044 143.475C139.122 143.403 139.197 143.346 139.252 143.307C139.274 143.291 139.291 143.28 139.304 143.272C141.751 142.002 144.052 141.572 146.114 141.818C148.182 142.064 150.077 142.996 151.702 144.56C154.971 147.707 157.16 153.447 157.16 161.151V170.036C144.153 173.106 134.461 175.417 128.02 178.827C124.705 180.582 122.177 182.662 120.488 185.349C118.795 188.041 118 191.252 118 195.171C118 202.023 121.545 206.181 125.806 208.573C130.009 210.932 134.919 211.593 137.9 211.593C147.443 211.593 154.842 207.176 158.057 200.588Z" fill="url(#paint21_linear_0_1)" stroke="white" stroke-width="2"/>
<path d="M63.8051 174.039H106.443V175.399C96.0101 175.399 96.766 176.307 96.766 206.546C89.2062 211.838 74.2377 215.164 58.0596 215.164C25.4011 215.164 0 192.636 0 160.582C0 128.377 25.4011 106 58.0596 106C78.7736 106 86.9382 108.268 96.3125 114.467L93.4397 144.253H92.2301C92.2301 109.175 67.8874 107.361 58.0596 107.361C40.8232 107.361 37.1944 119.003 37.1944 160.582C37.1944 202.161 41.1256 213.803 58.0596 213.803C69.7018 213.803 74.3889 208.058 74.3889 193.392C74.3889 176.911 72.1209 175.399 63.8051 175.399V174.039Z" fill="url(#paint22_linear_0_1)"/>
<path d="M72.8051 169.039H71.8051V170.039V171.399V172.399H72.8051C77.0102 172.399 79.1001 172.823 80.3804 174.766C81.064 175.803 81.5798 177.366 81.9142 179.766C82.2471 182.156 82.3889 185.286 82.3889 189.392C82.3889 196.665 81.2166 201.476 78.8105 204.471C76.4508 207.408 72.728 208.803 67.0596 208.803C62.9319 208.803 59.7218 208.093 57.1903 206.49C54.6707 204.894 52.7068 202.341 51.2108 198.428C48.1882 190.521 47.1944 177.404 47.1944 156.582C47.1944 135.755 48.1129 122.64 51.0989 114.733C52.576 110.821 54.5298 108.27 57.0608 106.676C59.6055 105.073 62.8532 104.361 67.0596 104.361C71.937 104.361 80.2237 104.82 87.2786 109.487C94.2551 114.102 100.23 122.974 100.23 140.253V141.253H101.23H102.44H103.348L103.435 140.349L106.308 110.563L106.366 109.965L105.864 109.633C101.098 106.481 96.6041 104.308 90.6638 102.935C84.7509 101.567 77.4419 101 67.0596 101C33.9267 101 8 123.75 8 156.582C8 189.261 33.9248 212.164 67.0596 212.164C75.2135 212.164 83.0736 211.326 89.8619 209.816C96.6336 208.309 102.408 206.117 106.34 203.365L106.766 203.067V202.546C106.766 200.499 106.763 198.589 106.759 196.806C106.751 191.99 106.744 188.098 106.811 184.943C106.903 180.598 107.136 177.768 107.656 175.901C107.911 174.982 108.222 174.352 108.579 173.904C108.926 173.467 109.349 173.163 109.9 172.942C111.083 172.47 112.782 172.399 115.443 172.399H116.443V171.399V170.039V169.039H115.443H72.8051Z" fill="url(#paint23_linear_0_1)" stroke="white" stroke-width="2"/>
<defs>
<linearGradient id="paint0_linear_0_1" x1="550.867" y1="10" x2="550.867" y2="122.793" gradientUnits="userSpaceOnUse">
<stop stop-color="#FF6801"/>
<stop offset="1" stop-color="#F73845"/>
</linearGradient>
<linearGradient id="paint1_linear_0_1" x1="476.452" y1="18.9206" x2="476.452" y2="122.793" gradientUnits="userSpaceOnUse">
<stop stop-color="#FF6801"/>
<stop offset="1" stop-color="#F73845"/>
</linearGradient>
<linearGradient id="paint2_linear_0_1" x1="407.183" y1="52.9399" x2="407.183" y2="124.154" gradientUnits="userSpaceOnUse">
<stop stop-color="#FF6801"/>
<stop offset="1" stop-color="#F73845"/>
</linearGradient>
<linearGradient id="paint3_linear_0_1" x1="325.596" y1="51.561" x2="325.596" y2="124.154" gradientUnits="userSpaceOnUse">
<stop stop-color="#FF6801"/>
<stop offset="1" stop-color="#F73845"/>
</linearGradient>
<linearGradient id="paint4_linear_0_1" x1="223.623" y1="16.3503" x2="223.623" y2="122.793" gradientUnits="userSpaceOnUse">
<stop stop-color="#FF6801"/>
<stop offset="1" stop-color="#F73845"/>
</linearGradient>
<linearGradient id="paint5_linear_0_1" x1="556.867" y1="3" x2="556.867" y2="115.793" gradientUnits="userSpaceOnUse">
<stop stop-color="#FF6801"/>
<stop offset="1" stop-color="#F73845"/>
</linearGradient>
<linearGradient id="paint6_linear_0_1" x1="482.452" y1="11.9206" x2="482.452" y2="115.793" gradientUnits="userSpaceOnUse">
<stop stop-color="#FF6801"/>
<stop offset="1" stop-color="#F73845"/>
</linearGradient>
<linearGradient id="paint7_linear_0_1" x1="413.183" y1="45.9399" x2="413.183" y2="117.154" gradientUnits="userSpaceOnUse">
<stop stop-color="#FF6801"/>
<stop offset="1" stop-color="#F73845"/>
</linearGradient>
<linearGradient id="paint8_linear_0_1" x1="331.596" y1="44.561" x2="331.596" y2="117.154" gradientUnits="userSpaceOnUse">
<stop stop-color="#FF6801"/>
<stop offset="1" stop-color="#F73845"/>
</linearGradient>
<linearGradient id="paint9_linear_0_1" x1="229.623" y1="9.35027" x2="229.623" y2="115.793" gradientUnits="userSpaceOnUse">
<stop stop-color="#FF6801"/>
<stop offset="1" stop-color="#F73845"/>
</linearGradient>
<linearGradient id="paint10_linear_0_1" x1="553.599" y1="143.94" x2="553.599" y2="250.73" gradientUnits="userSpaceOnUse">
<stop stop-color="#F83E34"/>
<stop offset="1" stop-color="#EE0977"/>
</linearGradient>
<linearGradient id="paint11_linear_0_1" x1="559.603" y1="138" x2="559.603" y2="244.79" gradientUnits="userSpaceOnUse">
<stop stop-color="#F83E34"/>
<stop offset="1" stop-color="#EE0977"/>
</linearGradient>
<linearGradient id="paint12_linear_0_1" x1="487.344" y1="101" x2="487.344" y2="213.793" gradientUnits="userSpaceOnUse">
<stop stop-color="#F83E34"/>
<stop offset="1" stop-color="#EE0977"/>
</linearGradient>
<linearGradient id="paint13_linear_0_1" x1="493.958" y1="98" x2="493.958" y2="210.793" gradientUnits="userSpaceOnUse">
<stop stop-color="#F83E34"/>
<stop offset="1" stop-color="#EE0977"/>
</linearGradient>
<linearGradient id="paint14_linear_0_1" x1="418.053" y1="142.579" x2="418.053" y2="215.154" gradientUnits="userSpaceOnUse">
<stop stop-color="#F83E34"/>
<stop offset="1" stop-color="#EE0977"/>
</linearGradient>
<linearGradient id="paint15_linear_0_1" x1="425.696" y1="138" x2="425.696" y2="210.575" gradientUnits="userSpaceOnUse">
<stop stop-color="#F83E34"/>
<stop offset="1" stop-color="#EE0977"/>
</linearGradient>
<linearGradient id="paint16_linear_0_1" x1="328.174" y1="140.223" x2="328.174" y2="253.851" gradientUnits="userSpaceOnUse">
<stop stop-color="#F83E34"/>
<stop offset="1" stop-color="#EE0977"/>
</linearGradient>
<linearGradient id="paint17_linear_0_1" x1="336.552" y1="138" x2="336.552" y2="251.628" gradientUnits="userSpaceOnUse">
<stop stop-color="#F83E34"/>
<stop offset="1" stop-color="#EE0977"/>
</linearGradient>
<linearGradient id="paint18_linear_0_1" x1="236.081" y1="142.579" x2="236.081" y2="213.793" gradientUnits="userSpaceOnUse">
<stop stop-color="#F83E34"/>
<stop offset="1" stop-color="#EE0977"/>
</linearGradient>
<linearGradient id="paint19_linear_0_1" x1="244.335" y1="138" x2="244.335" y2="209.214" gradientUnits="userSpaceOnUse">
<stop stop-color="#F83E34"/>
<stop offset="1" stop-color="#EE0977"/>
</linearGradient>
<linearGradient id="paint20_linear_0_1" x1="151.428" y1="142.561" x2="151.428" y2="215.154" gradientUnits="userSpaceOnUse">
<stop stop-color="#F83E34"/>
<stop offset="1" stop-color="#EE0977"/>
</linearGradient>
<linearGradient id="paint21_linear_0_1" x1="157.48" y1="138" x2="157.48" y2="210.593" gradientUnits="userSpaceOnUse">
<stop stop-color="#F83E34"/>
<stop offset="1" stop-color="#EE0977"/>
</linearGradient>
<linearGradient id="paint22_linear_0_1" x1="53.2213" y1="106" x2="53.2213" y2="215.164" gradientUnits="userSpaceOnUse">
<stop stop-color="#F83E34"/>
<stop offset="1" stop-color="#EE0977"/>
</linearGradient>
<linearGradient id="paint23_linear_0_1" x1="62.2213" y1="102" x2="62.2213" y2="211.164" gradientUnits="userSpaceOnUse">
<stop stop-color="#F83E34"/>
<stop offset="1" stop-color="#EE0977"/>
</linearGradient>
</defs>
</svg>
